<?xml version="1.0" encoding="UTF-8" standalone="no"?>
<svg width="800" height="600" xmlns="http://www.w3.org/2000/svg">
  <!-- Background -->
  <rect width="800" height="600" fill="#f9f9f9"/>
  
  <!-- Title -->
  <text x="400" y="40" font-family="Arial" font-size="24" font-weight="bold" text-anchor="middle">Cognitive Mechanisms in Deep Learning Models</text>
  <text x="400" y="70" font-family="Arial" font-size="16" text-anchor="middle">Neural Processes and Their AI Implementations</text>
  
  <!-- Left side (Brain/Neural) -->
  <rect x="50" y="100" width="300" height="400" rx="10" ry="10" fill="#ffcccc" fill-opacity="0.2" stroke="#cc0000" stroke-width="2"/>
  <text x="200" y="125" font-family="Arial" font-size="18" font-weight="bold" text-anchor="middle" fill="#cc0000">Neural Mechanisms</text>
  
  <!-- Right side (AI/Computational) -->
  <rect x="450" y="100" width="300" height="400" rx="10" ry="10" fill="#ccccff" fill-opacity="0.2" stroke="#0066cc" stroke-width="2"/>
  <text x="600" y="125" font-family="Arial" font-size="18" font-weight="bold" text-anchor="middle" fill="#0066cc">AI Implementations</text>
  
  <!-- Center arrows -->
  <line x1="350" y1="180" x2="450" y2="180" stroke="#9966cc" stroke-width="2"/>
  <polygon points="440,175 450,180 440,185" fill="#9966cc"/>
  
  <line x1="350" y1="260" x2="450" y2="260" stroke="#9966cc" stroke-width="2"/>
  <polygon points="440,255 450,260 440,265" fill="#9966cc"/>
  
  <line x1="350" y1="340" x2="450" y2="340" stroke="#9966cc" stroke-width="2"/>
  <polygon points="440,335 450,340 440,345" fill="#9966cc"/>
  
  <line x1="350" y1="420" x2="450" y2="420" stroke="#9966cc" stroke-width="2"/>
  <polygon points="440,415 450,420 440,425" fill="#9966cc"/>
  
  <!-- Section 1: Attention -->
  <rect x="70" y="150" width="260" height="60" rx="5" ry="5" fill="#ffcccc" fill-opacity="0.6" stroke="#cc0000" stroke-width="1.5"/>
  <text x="200" y="170" font-family="Arial" font-size="14" font-weight="bold" text-anchor="middle">Attention Mechanisms</text>
  <text x="200" y="190" font-family="Arial" font-size="12" text-anchor="middle">Selective enhancement of relevant information</text>
  
  <rect x="470" y="150" width="260" height="60" rx="5" ry="5" fill="#ccccff" fill-opacity="0.6" stroke="#0066cc" stroke-width="1.5"/>
  <text x="600" y="170" font-family="Arial" font-size="14" font-weight="bold" text-anchor="middle">Self-Attention Networks</text>
  <text x="600" y="190" font-family="Arial" font-size="12" text-anchor="middle">Dynamic focus on feature relationships</text>
  
  <!-- Section 2: Hierarchical Processing -->
  <rect x="70" y="230" width="260" height="60" rx="5" ry="5" fill="#ffcccc" fill-opacity="0.6" stroke="#cc0000" stroke-width="1.5"/>
  <text x="200" y="250" font-family="Arial" font-size="14" font-weight="bold" text-anchor="middle">Hierarchical Processing</text>
  <text x="200" y="270" font-family="Arial" font-size="12" text-anchor="middle">Brain region specialization and abstraction</text>
  
  <rect x="470" y="230" width="260" height="60" rx="5" ry="5" fill="#ccccff" fill-opacity="0.6" stroke="#0066cc" stroke-width="1.5"/>
  <text x="600" y="250" font-family="Arial" font-size="14" font-weight="bold" text-anchor="middle">Deep Neural Networks</text>
  <text x="600" y="270" font-family="Arial" font-size="12" text-anchor="middle">Layer-wise feature abstraction</text>
  
  <!-- Section 3: Learning &amp; Plasticity -->
  <rect x="70" y="310" width="260" height="60" rx="5" ry="5" fill="#ffcccc" fill-opacity="0.6" stroke="#cc0000" stroke-width="1.5"/>
  <text x="200" y="330" font-family="Arial" font-size="14" font-weight="bold" text-anchor="middle">Hebbian Learning</text>
  <text x="200" y="350" font-family="Arial" font-size="12" text-anchor="middle">"What fires together, wires together"</text>
  
  <rect x="470" y="310" width="260" height="60" rx="5" ry="5" fill="#ccccff" fill-opacity="0.6" stroke="#0066cc" stroke-width="1.5"/>
  <text x="600" y="330" font-family="Arial" font-size="14" font-weight="bold" text-anchor="middle">Contrastive Learning</text>
  <text x="600" y="350" font-family="Arial" font-size="12" text-anchor="middle">Similarity-based representation learning</text>
  
  <!-- Section 4: Predictive Processing -->
  <rect x="70" y="390" width="260" height="60" rx="5" ry="5" fill="#ffcccc" fill-opacity="0.6" stroke="#cc0000" stroke-width="1.5"/>
  <text x="200" y="410" font-family="Arial" font-size="14" font-weight="bold" text-anchor="middle">Predictive Coding</text>
  <text x="200" y="430" font-family="Arial" font-size="12" text-anchor="middle">Error-based learning in neural hierarchies</text>
  
  <rect x="470" y="390" width="260" height="60" rx="5" ry="5" fill="#ccccff" fill-opacity="0.6" stroke="#0066cc" stroke-width="1.5"/>
  <text x="600" y="410" font-family="Arial" font-size="14" font-weight="bold" text-anchor="middle">Generative Models</text>
  <text x="600" y="430" font-family="Arial" font-size="12" text-anchor="middle">Diffusion models and GANs</text>
  
  <!-- Additional details -->
  <!-- Attention details -->
  <rect x="70" y="210" width="120" height="20" rx="3" ry="3" fill="#ffcccc" fill-opacity="0.4" stroke="#cc0000" stroke-width="1"/>
  <text x="130" y="225" font-family="Arial" font-size="10" text-anchor="middle">Frontoparietal network</text>
  
  <rect x="210" y="210" width="120" height="20" rx="3" ry="3" fill="#ffcccc" fill-opacity="0.4" stroke="#cc0000" stroke-width="1"/>
  <text x="270" y="225" font-family="Arial" font-size="10" text-anchor="middle">Top-down modulation</text>
  
  <rect x="470" y="210" width="120" height="20" rx="3" ry="3" fill="#ccccff" fill-opacity="0.4" stroke="#0066cc" stroke-width="1"/>
  <text x="530" y="225" font-family="Arial" font-size="10" text-anchor="middle">Transformers</text>
  
  <rect x="610" y="210" width="120" height="20" rx="3" ry="3" fill="#ccccff" fill-opacity="0.4" stroke="#0066cc" stroke-width="1"/>
  <text x="670" y="225" font-family="Arial" font-size="10" text-anchor="middle">Attention maps</text>
  
  <!-- Hierarchical details -->
  <rect x="70" y="290" width="120" height="20" rx="3" ry="3" fill="#ffcccc" fill-opacity="0.4" stroke="#cc0000" stroke-width="1"/>
  <text x="130" y="305" font-family="Arial" font-size="10" text-anchor="middle">Visual cortex pathway</text>
  
  <rect x="210" y="290" width="120" height="20" rx="3" ry="3" fill="#ffcccc" fill-opacity="0.4" stroke="#cc0000" stroke-width="1"/>
  <text x="270" y="305" font-family="Arial" font-size="10" text-anchor="middle">Simple to complex cells</text>
  
  <rect x="470" y="290" width="120" height="20" rx="3" ry="3" fill="#ccccff" fill-opacity="0.4" stroke="#0066cc" stroke-width="1"/>
  <text x="530" y="305" font-family="Arial" font-size="10" text-anchor="middle">CNNs</text>
  
  <rect x="610" y="290" width="120" height="20" rx="3" ry="3" fill="#ccccff" fill-opacity="0.4" stroke="#0066cc" stroke-width="1"/>
  <text x="670" y="305" font-family="Arial" font-size="10" text-anchor="middle">Feature hierarchies</text>
  
  <!-- Learning details -->
  <rect x="70" y="370" width="120" height="20" rx="3" ry="3" fill="#ffcccc" fill-opacity="0.4" stroke="#cc0000" stroke-width="1"/>
  <text x="130" y="385" font-family="Arial" font-size="10" text-anchor="middle">Synaptic plasticity</text>
  
  <rect x="210" y="370" width="120" height="20" rx="3" ry="3" fill="#ffcccc" fill-opacity="0.4" stroke="#cc0000" stroke-width="1"/>
  <text x="270" y="385" font-family="Arial" font-size="10" text-anchor="middle">STDP</text>
  
  <rect x="470" y="370" width="120" height="20" rx="3" ry="3" fill="#ccccff" fill-opacity="0.4" stroke="#0066cc" stroke-width="1"/>
  <text x="530" y="385" font-family="Arial" font-size="10" text-anchor="middle">Self-supervised learning</text>
  
  <rect x="610" y="370" width="120" height="20" rx="3" ry="3" fill="#ccccff" fill-opacity="0.4" stroke="#0066cc" stroke-width="1"/>
  <text x="670" y="385" font-family="Arial" font-size="10" text-anchor="middle">SimCLR, BYOL</text>
  
  <!-- Predictive details -->
  <rect x="70" y="450" width="120" height="20" rx="3" ry="3" fill="#ffcccc" fill-opacity="0.4" stroke="#cc0000" stroke-width="1"/>
  <text x="130" y="465" font-family="Arial" font-size="10" text-anchor="middle">Expectation signals</text>
  
  <rect x="210" y="450" width="120" height="20" rx="3" ry="3" fill="#ffcccc" fill-opacity="0.4" stroke="#cc0000" stroke-width="1"/>
  <text x="270" y="465" font-family="Arial" font-size="10" text-anchor="middle">Free energy principle</text>
  
  <rect x="470" y="450" width="120" height="20" rx="3" ry="3" fill="#ccccff" fill-opacity="0.4" stroke="#0066cc" stroke-width="1"/>
  <text x="530" y="465" font-family="Arial" font-size="10" text-anchor="middle">Latent variable models</text>
  
  <rect x="610" y="450" width="120" height="20" rx="3" ry="3" fill="#ccccff" fill-opacity="0.4" stroke="#0066cc" stroke-width="1"/>
  <text x="670" y="465" font-family="Arial" font-size="10" text-anchor="middle">VAEs, Diffusion models</text>
  
  <!-- Bottom section -->
  <rect x="50" y="510" width="700" height="70" rx="10" ry="10" fill="#f9f9f9" stroke="#9966cc" stroke-width="2"/>
  <text x="400" y="530" font-family="Arial" font-size="14" font-weight="bold" text-anchor="middle">Research Directions</text>
  
  <rect x="120" y="545" width="160" height="25" rx="5" ry="5" fill="#9966cc" fill-opacity="0.2" stroke="#9966cc" stroke-width="1"/>
  <text x="200" y="562" font-family="Arial" font-size="12" text-anchor="middle">Biologically Plausible Backprop</text>
  
  <rect x="320" y="545" width="160" height="25" rx="5" ry="5" fill="#9966cc" fill-opacity="0.2" stroke="#9966cc" stroke-width="1"/>
  <text x="400" y="562" font-family="Arial" font-size="12" text-anchor="middle">Multimodal Integration</text>
  
  <rect x="520" y="545" width="160" height="25" rx="5" ry="5" fill="#9966cc" fill-opacity="0.2" stroke="#9966cc" stroke-width="1"/>
  <text x="600" y="562" font-family="Arial" font-size="12" text-anchor="middle">Active Learning &amp; Curiosity</text>
  
  <!-- Figure Number and Caption -->
  <text x="400" y="595" font-family="Arial" font-size="12" text-anchor="middle">Figure 19.3: Parallel cognitive mechanisms in biological neural systems and artificial intelligence</text>
</svg>