<?xml version="1.0" encoding="UTF-8" standalone="no"?>
<svg width="800" height="600" xmlns="http://www.w3.org/2000/svg">
  <!-- Background -->
  <rect width="800" height="600" fill="#f9f9f9"/>
  
  <!-- Title -->
  <text x="400" y="40" font-family="Arial" font-size="24" font-weight="bold" text-anchor="middle">Representational Similarity Analysis (RSA)</text>
  <text x="400" y="70" font-family="Arial" font-size="16" text-anchor="middle">Comparing Neural and Model Representations</text>
  
  <!-- Main Working Areas -->
  <!-- Brain RDM Section -->
  <rect x="50" y="100" width="300" height="220" rx="10" ry="10" fill="#ffcccc" fill-opacity="0.2" stroke="#cc0000" stroke-width="2"/>
  <text x="200" y="125" font-family="Arial" font-size="16" font-weight="bold" text-anchor="middle" fill="#cc0000">Brain Activity RDM</text>
  
  <!-- Brain image (stylized) -->
  <ellipse cx="120" cy="170" rx="50" ry="60" fill="#ffcccc" stroke="#cc0000" stroke-width="1.5"/>
  <path d="M 100 140 C 95 135, 95 145, 100 140 Z" fill="#cc0000"/>
  <path d="M 140 140 C 145 135, 145 145, 140 140 Z" fill="#cc0000"/>
  <path d="M 120 130 C 115 125, 125 125, 120 130 Z" fill="#cc0000"/>
  
  <!-- Brain RDM Matrix -->
  <rect x="200" y="150" width="120" height="120" fill="#ffcccc" stroke="#cc0000" stroke-width="1.5"/>
  <line x1="200" y1="170" x2="320" y2="170" stroke="#cc0000" stroke-width="1"/>
  <line x1="200" y1="190" x2="320" y2="190" stroke="#cc0000" stroke-width="1"/>
  <line x1="200" y1="210" x2="320" y2="210" stroke="#cc0000" stroke-width="1"/>
  <line x1="200" y1="230" x2="320" y2="230" stroke="#cc0000" stroke-width="1"/>
  <line x1="200" y1="250" x2="320" y2="250" stroke="#cc0000" stroke-width="1"/>
  <line x1="220" y1="150" x2="220" y2="270" stroke="#cc0000" stroke-width="1"/>
  <line x1="240" y1="150" x2="240" y2="270" stroke="#cc0000" stroke-width="1"/>
  <line x1="260" y1="150" x2="260" y2="270" stroke="#cc0000" stroke-width="1"/>
  <line x1="280" y1="150" x2="280" y2="270" stroke="#cc0000" stroke-width="1"/>
  <line x1="300" y1="150" x2="300" y2="270" stroke="#cc0000" stroke-width="1"/>
  
  <!-- Red/white pattern in matrix -->
  <rect x="200" y="150" width="20" height="20" fill="#cc0000" fill-opacity="0.1"/>
  <rect x="220" y="150" width="20" height="20" fill="#cc0000" fill-opacity="0.5"/>
  <rect x="240" y="150" width="20" height="20" fill="#cc0000" fill-opacity="0.3"/>
  <rect x="260" y="150" width="20" height="20" fill="#cc0000" fill-opacity="0.8"/>
  <rect x="280" y="150" width="20" height="20" fill="#cc0000" fill-opacity="0.2"/>
  
  <rect x="200" y="170" width="20" height="20" fill="#cc0000" fill-opacity="0.5"/>
  <rect x="220" y="170" width="20" height="20" fill="#cc0000" fill-opacity="0.1"/>
  <rect x="240" y="170" width="20" height="20" fill="#cc0000" fill-opacity="0.2"/>
  <rect x="260" y="170" width="20" height="20" fill="#cc0000" fill-opacity="0.6"/>
  <rect x="280" y="170" width="20" height="20" fill="#cc0000" fill-opacity="0.3"/>
  
  <rect x="200" y="190" width="20" height="20" fill="#cc0000" fill-opacity="0.3"/>
  <rect x="220" y="190" width="20" height="20" fill="#cc0000" fill-opacity="0.2"/>
  <rect x="240" y="190" width="20" height="20" fill="#cc0000" fill-opacity="0.1"/>
  <rect x="260" y="190" width="20" height="20" fill="#cc0000" fill-opacity="0.4"/>
  <rect x="280" y="190" width="20" height="20" fill="#cc0000" fill-opacity="0.7"/>
  
  <rect x="200" y="210" width="20" height="20" fill="#cc0000" fill-opacity="0.8"/>
  <rect x="220" y="210" width="20" height="20" fill="#cc0000" fill-opacity="0.6"/>
  <rect x="240" y="210" width="20" height="20" fill="#cc0000" fill-opacity="0.4"/>
  <rect x="260" y="210" width="20" height="20" fill="#cc0000" fill-opacity="0.1"/>
  <rect x="280" y="210" width="20" height="20" fill="#cc0000" fill-opacity="0.3"/>
  
  <rect x="200" y="230" width="20" height="20" fill="#cc0000" fill-opacity="0.2"/>
  <rect x="220" y="230" width="20" height="20" fill="#cc0000" fill-opacity="0.3"/>
  <rect x="240" y="230" width="20" height="20" fill="#cc0000" fill-opacity="0.7"/>
  <rect x="260" y="230" width="20" height="20" fill="#cc0000" fill-opacity="0.3"/>
  <rect x="280" y="230" width="20" height="20" fill="#cc0000" fill-opacity="0.1"/>
  
  <rect x="300" y="150" width="20" height="20" fill="#cc0000" fill-opacity="0.3"/>
  <rect x="300" y="170" width="20" height="20" fill="#cc0000" fill-opacity="0.5"/>
  <rect x="300" y="190" width="20" height="20" fill="#cc0000" fill-opacity="0.2"/>
  <rect x="300" y="210" width="20" height="20" fill="#cc0000" fill-opacity="0.7"/>
  <rect x="300" y="230" width="20" height="20" fill="#cc0000" fill-opacity="0.4"/>
  
  <rect x="200" y="250" width="20" height="20" fill="#cc0000" fill-opacity="0.6"/>
  <rect x="220" y="250" width="20" height="20" fill="#cc0000" fill-opacity="0.4"/>
  <rect x="240" y="250" width="20" height="20" fill="#cc0000" fill-opacity="0.2"/>
  <rect x="260" y="250" width="20" height="20" fill="#cc0000" fill-opacity="0.8"/>
  <rect x="280" y="250" width="20" height="20" fill="#cc0000" fill-opacity="0.3"/>
  <rect x="300" y="250" width="20" height="20" fill="#cc0000" fill-opacity="0.1"/>
  
  <!-- Brain data labels -->
  <text x="60" y="220" font-family="Arial" font-size="12" text-anchor="middle">fMRI or</text>
  <text x="60" y="235" font-family="Arial" font-size="12" text-anchor="middle">Neural</text>
  <text x="60" y="250" font-family="Arial" font-size="12" text-anchor="middle">Recordings</text>
  
  <text x="100" y="250" font-family="Arial" font-size="10" text-anchor="start">1. Measure neural</text>
  <text x="100" y="265" font-family="Arial" font-size="10" text-anchor="start">responses to stimuli</text>
  
  <text x="260" y="295" font-family="Arial" font-size="10" text-anchor="middle">2. Compute pairwise</text>
  <text x="260" y="310" font-family="Arial" font-size="10" text-anchor="middle">distances (RDM)</text>
  
  <!-- Model RDM Section -->
  <rect x="450" y="100" width="300" height="220" rx="10" ry="10" fill="#ccccff" fill-opacity="0.2" stroke="#0066cc" stroke-width="2"/>
  <text x="600" y="125" font-family="Arial" font-size="16" font-weight="bold" text-anchor="middle" fill="#0066cc">Model RDM</text>
  
  <!-- Neural Network -->
  <rect x="500" y="160" width="30" height="120" fill="#ccccff" stroke="#0066cc" stroke-width="1.5"/>
  <rect x="540" y="170" width="30" height="100" fill="#ccccff" stroke="#0066cc" stroke-width="1.5"/>
  <rect x="580" y="180" width="30" height="80" fill="#ccccff" stroke="#0066cc" stroke-width="1.5"/>
  
  <!-- Connections -->
  <line x1="510" y1="175" x2="540" y2="180" stroke="#0066cc" stroke-width="1"/>
  <line x1="510" y1="190" x2="540" y2="195" stroke="#0066cc" stroke-width="1"/>
  <line x1="510" y1="205" x2="540" y2="210" stroke="#0066cc" stroke-width="1"/>
  <line x1="510" y1="220" x2="540" y2="225" stroke="#0066cc" stroke-width="1"/>
  <line x1="510" y1="235" x2="540" y2="240" stroke="#0066cc" stroke-width="1"/>
  <line x1="510" y1="250" x2="540" y2="255" stroke="#0066cc" stroke-width="1"/>
  
  <line x1="555" y1="180" x2="580" y2="190" stroke="#0066cc" stroke-width="1"/>
  <line x1="555" y1="195" x2="580" y2="205" stroke="#0066cc" stroke-width="1"/>
  <line x1="555" y1="210" x2="580" y2="220" stroke="#0066cc" stroke-width="1"/>
  <line x1="555" y1="225" x2="580" y2="235" stroke="#0066cc" stroke-width="1"/>
  <line x1="555" y1="240" x2="580" y2="250" stroke="#0066cc" stroke-width="1"/>
  
  <!-- Model RDM Matrix -->
  <rect x="650" y="150" width="120" height="120" fill="#ccccff" stroke="#0066cc" stroke-width="1.5"/>
  <line x1="650" y1="170" x2="770" y2="170" stroke="#0066cc" stroke-width="1"/>
  <line x1="650" y1="190" x2="770" y2="190" stroke="#0066cc" stroke-width="1"/>
  <line x1="650" y1="210" x2="770" y2="210" stroke="#0066cc" stroke-width="1"/>
  <line x1="650" y1="230" x2="770" y2="230" stroke="#0066cc" stroke-width="1"/>
  <line x1="650" y1="250" x2="770" y2="250" stroke="#0066cc" stroke-width="1"/>
  <line x1="670" y1="150" x2="670" y2="270" stroke="#0066cc" stroke-width="1"/>
  <line x1="690" y1="150" x2="690" y2="270" stroke="#0066cc" stroke-width="1"/>
  <line x1="710" y1="150" x2="710" y2="270" stroke="#0066cc" stroke-width="1"/>
  <line x1="730" y1="150" x2="730" y2="270" stroke="#0066cc" stroke-width="1"/>
  <line x1="750" y1="150" x2="750" y2="270" stroke="#0066cc" stroke-width="1"/>
  
  <!-- Blue/white pattern in matrix -->
  <rect x="650" y="150" width="20" height="20" fill="#0066cc" fill-opacity="0.1"/>
  <rect x="670" y="150" width="20" height="20" fill="#0066cc" fill-opacity="0.5"/>
  <rect x="690" y="150" width="20" height="20" fill="#0066cc" fill-opacity="0.3"/>
  <rect x="710" y="150" width="20" height="20" fill="#0066cc" fill-opacity="0.7"/>
  <rect x="730" y="150" width="20" height="20" fill="#0066cc" fill-opacity="0.2"/>
  
  <rect x="650" y="170" width="20" height="20" fill="#0066cc" fill-opacity="0.5"/>
  <rect x="670" y="170" width="20" height="20" fill="#0066cc" fill-opacity="0.1"/>
  <rect x="690" y="170" width="20" height="20" fill="#0066cc" fill-opacity="0.2"/>
  <rect x="710" y="170" width="20" height="20" fill="#0066cc" fill-opacity="0.6"/>
  <rect x="730" y="170" width="20" height="20" fill="#0066cc" fill-opacity="0.3"/>
  
  <rect x="650" y="190" width="20" height="20" fill="#0066cc" fill-opacity="0.3"/>
  <rect x="670" y="190" width="20" height="20" fill="#0066cc" fill-opacity="0.2"/>
  <rect x="690" y="190" width="20" height="20" fill="#0066cc" fill-opacity="0.1"/>
  <rect x="710" y="190" width="20" height="20" fill="#0066cc" fill-opacity="0.4"/>
  <rect x="730" y="190" width="20" height="20" fill="#0066cc" fill-opacity="0.7"/>
  
  <rect x="650" y="210" width="20" height="20" fill="#0066cc" fill-opacity="0.7"/>
  <rect x="670" y="210" width="20" height="20" fill="#0066cc" fill-opacity="0.6"/>
  <rect x="690" y="210" width="20" height="20" fill="#0066cc" fill-opacity="0.4"/>
  <rect x="710" y="210" width="20" height="20" fill="#0066cc" fill-opacity="0.1"/>
  <rect x="730" y="210" width="20" height="20" fill="#0066cc" fill-opacity="0.3"/>
  
  <rect x="650" y="230" width="20" height="20" fill="#0066cc" fill-opacity="0.2"/>
  <rect x="670" y="230" width="20" height="20" fill="#0066cc" fill-opacity="0.3"/>
  <rect x="690" y="230" width="20" height="20" fill="#0066cc" fill-opacity="0.7"/>
  <rect x="710" y="230" width="20" height="20" fill="#0066cc" fill-opacity="0.3"/>
  <rect x="730" y="230" width="20" height="20" fill="#0066cc" fill-opacity="0.1"/>
  
  <rect x="750" y="150" width="20" height="20" fill="#0066cc" fill-opacity="0.3"/>
  <rect x="750" y="170" width="20" height="20" fill="#0066cc" fill-opacity="0.5"/>
  <rect x="750" y="190" width="20" height="20" fill="#0066cc" fill-opacity="0.2"/>
  <rect x="750" y="210" width="20" height="20" fill="#0066cc" fill-opacity="0.7"/>
  <rect x="750" y="230" width="20" height="20" fill="#0066cc" fill-opacity="0.4"/>
  
  <rect x="650" y="250" width="20" height="20" fill="#0066cc" fill-opacity="0.6"/>
  <rect x="670" y="250" width="20" height="20" fill="#0066cc" fill-opacity="0.4"/>
  <rect x="690" y="250" width="20" height="20" fill="#0066cc" fill-opacity="0.2"/>
  <rect x="710" y="250" width="20" height="20" fill="#0066cc" fill-opacity="0.8"/>
  <rect x="730" y="250" width="20" height="20" fill="#0066cc" fill-opacity="0.3"/>
  <rect x="750" y="250" width="20" height="20" fill="#0066cc" fill-opacity="0.1"/>
  
  <!-- Model labels -->
  <text x="700" y="295" font-family="Arial" font-size="10" text-anchor="middle">4. Compute pairwise</text>
  <text x="700" y="310" font-family="Arial" font-size="10" text-anchor="middle">distances (RDM)</text>
  
  <text x="550" y="295" font-family="Arial" font-size="10" text-anchor="middle">3. Extract model</text>
  <text x="550" y="310" font-family="Arial" font-size="10" text-anchor="middle">activations for same stimuli</text>
  
  <!-- Comparison Section -->
  <rect x="250" y="340" width="300" height="160" rx="10" ry="10" fill="#9966cc" fill-opacity="0.1" stroke="#9966cc" stroke-width="2"/>
  <text x="400" y="365" font-family="Arial" font-size="16" font-weight="bold" text-anchor="middle" fill="#9966cc">Comparing Representations</text>
  
  <!-- Correlation Visualization -->
  <line x1="300" y1="440" x2="500" y2="440" stroke="#000000" stroke-width="1"/>
  <line x1="300" y1="440" x2="300" y2="390" stroke="#000000" stroke-width="1"/>
  
  <!-- Correlation Points -->
  <circle cx="320" cy="430" r="3" fill="#9966cc"/>
  <circle cx="340" cy="410" r="3" fill="#9966cc"/>
  <circle cx="360" cy="425" r="3" fill="#9966cc"/>
  <circle cx="380" cy="400" r="3" fill="#9966cc"/>
  <circle cx="400" cy="415" r="3" fill="#9966cc"/>
  <circle cx="420" cy="395" r="3" fill="#9966cc"/>
  <circle cx="440" cy="420" r="3" fill="#9966cc"/>
  <circle cx="460" cy="405" r="3" fill="#9966cc"/>
  <circle cx="480" cy="435" r="3" fill="#9966cc"/>
  
  <!-- Trend Line -->
  <line x1="300" y1="435" x2="500" y2="405" stroke="#9966cc" stroke-width="2" stroke-dasharray="5,5"/>
  
  <!-- Labels -->
  <text x="400" y="460" font-family="Arial" font-size="12" text-anchor="middle">5. Correlate neural and model RDMs</text>
  <text x="290" y="385" font-family="Arial" font-size="10" text-anchor="end">High</text>
  <text x="290" y="440" font-family="Arial" font-size="10" text-anchor="end">Low</text>
  <text x="300" y="450" font-family="Arial" font-size="10" text-anchor="start">Low</text>
  <text x="500" y="450" font-family="Arial" font-size="10" text-anchor="end">High</text>
  <text x="400" y="475" font-family="Arial" font-size="10" text-anchor="middle">Correlation: How well does the model predict brain activity?</text>
  
  <!-- RDM Examples Labels -->
  <text x="420" y="410" font-family="Arial" font-size="10" text-anchor="start">Correlation Score</text>
  <text x="420" y="425" font-family="Arial" font-size="10" text-anchor="start">(e.g., Spearman's rho)</text>
  
  <!-- Figure key details -->
  <rect x="250" y="520" width="300" height="60" rx="10" ry="10" fill="#f9f9f9" stroke="#000000" stroke-width="1"/>
  <text x="400" y="540" font-family="Arial" font-size="14" font-weight="bold" text-anchor="middle">Key RSA Concepts</text>
  <text x="350" y="560" font-family="Arial" font-size="12" text-anchor="middle">• Stimulus similarity structure</text>
  <text x="550" y="560" font-family="Arial" font-size="12" text-anchor="middle">• Abstract representational space</text>
  <text x="400" y="575" font-family="Arial" font-size="12" text-anchor="middle">• Correlations reveal computational correspondences</text>
  
  <!-- Arrows connecting sections -->
  <path d="M 260 290 C 260 320, 300 340, 350 365" stroke="#9966cc" stroke-width="2" fill="none" marker-end="url(#arrowhead2)"/>
  <path d="M 700 320 C 700 350, 500 350, 450 365" stroke="#9966cc" stroke-width="2" fill="none" marker-end="url(#arrowhead2)"/>
  
  <defs>
    <marker id="arrowhead2" markerWidth="10" markerHeight="7" refX="10" refY="3.5" orient="auto">
      <polygon points="0 0, 10 3.5, 0 7" fill="#9966cc"/>
    </marker>
  </defs>
  
  <!-- Figure Number and Caption -->
  <text x="400" y="595" font-family="Arial" font-size="12" text-anchor="middle">Figure 19.2: Representational Similarity Analysis for comparing neural and computational models</text>
</svg>