<?xml version="1.0" encoding="UTF-8" standalone="no"?>
<svg xmlns="http://www.w3.org/2000/svg" xmlns:xlink="http://www.w3.org/1999/xlink" width="800" height="480" viewBox="0 0 800 480">
  <style>
    .title {
      font-family: Arial, sans-serif;
      font-size: 20px;
      font-weight: bold;
      text-anchor: middle;
      fill: #333;
    }
    .axis-title {
      font-family: Arial, sans-serif;
      font-size: 14px;
      font-weight: bold;
      text-anchor: middle;
      fill: #555;
    }
    .label {
      font-family: Arial, sans-serif;
      font-size: 12px;
      text-anchor: middle;
      fill: #333;
    }
    .annotation {
      font-family: Arial, sans-serif;
      font-size: 12px;
      font-style: italic;
      fill: #666;
    }
    .annotation-title {
      font-family: Arial, sans-serif;
      font-size: 14px;
      font-weight: bold;
      text-anchor: start;
      fill: #333;
    }
    .grid {
      stroke: #ddd;
      stroke-width: 1;
    }
    .axis {
      stroke: #666;
      stroke-width: 2;
    }
    .curve {
      fill: none;
      stroke-width: 3;
    }
    .total-error {
      stroke: #333;
    }
    .bias {
      stroke: #d9534f;
    }
    .variance {
      stroke: #5bc0de;
    }
    .model {
      stroke: #333;
      stroke-width: 1;
      fill: none;
    }
    .true-fn {
      stroke: #5cb85c;
      stroke-width: 2;
      stroke-dasharray: 5,5;
      fill: none;
    }
    .data-point {
      fill: #666;
      stroke: white;
      stroke-width: 1;
    }
    .prediction {
      fill: #d9534f;
      stroke: white;
      stroke-width: 1;
    }
  </style>

  <!-- Title -->
  <text x="400" y="30" class="title">The Bias-Variance Tradeoff in Machine Learning</text>
  
  <!-- Left panel: Error curves -->
  <g transform="translate(50, 80)">
    <rect x="0" y="0" width="300" height="320" fill="#f9f9f9" stroke="#ccc" rx="5" ry="5"/>
    
    <!-- Axes -->
    <line x1="40" y1="280" x2="280" y2="280" class="axis"/>
    <line x1="40" y1="280" x2="40" y2="20" class="axis"/>
    
    <!-- Axis labels -->
    <text x="160" y="310" class="axis-title">Model Complexity</text>
    <text x="20" y="150" class="axis-title" transform="rotate(-90, 20, 150)">Error</text>
    
    <!-- Grid lines -->
    <line x1="40" y1="40" x2="280" y2="40" class="grid"/>
    <line x1="40" y1="100" x2="280" y2="100" class="grid"/>
    <line x1="40" y1="160" x2="280" y2="160" class="grid"/>
    <line x1="40" y1="220" x2="280" y2="220" class="grid"/>
    <line x1="100" y1="20" x2="100" y2="280" class="grid"/>
    <line x1="160" y1="20" x2="160" y2="280" class="grid"/>
    <line x1="220" y1="20" x2="220" y2="280" class="grid"/>
    
    <!-- Curves -->
    <path d="M 40 200 C 70 190, 100 170, 130 130 C 160 90, 190 60, 220 40 C 250 30, 280 25, 280 25" class="curve bias"/>
    <path d="M 40 200 C 70 205, 100 210, 130 220 C 160 230, 190 250, 220 280 C 250 310, 280 340, 280 340" class="curve variance"/>
    <path d="M 40 230 C 70 220, 100 200, 130 180 C 160 165, 190 160, 220 180 C 250 220, 280 270, 280 270" class="curve total-error"/>
    
    <!-- Curve labels -->
    <text x="270" y="25" class="label" text-anchor="end">Bias</text>
    <text x="280" y="320" class="label" text-anchor="end">Variance</text>
    <text x="280" y="250" class="label" text-anchor="end">Total Error</text>
    
    <!-- Optimal complexity marker -->
    <line x1="160" y1="20" x2="160" y2="280" stroke="#666" stroke-width="2" stroke-dasharray="5,5"/>
    <text x="160" y="295" class="label">Optimal Complexity</text>
    
    <!-- Complexity regions -->
    <text x="100" y="40" class="label">Underfitting</text>
    <text x="220" y="40" class="label">Overfitting</text>
  </g>
  
  <!-- Upper right panel: Underfitting example -->
  <g transform="translate(400, 80)">
    <rect x="0" y="0" width="150" height="150" fill="#f9f9f9" stroke="#ccc" rx="5" ry="5"/>
    <text x="75" y="15" class="annotation-title">Underfitting</text>
    
    <!-- True function and underfit model -->
    <path d="M 10 125 C 30 50, 70 100, 90 25 C 110 80, 130 60, 140 125" class="true-fn"/>
    <line x1="10" y1="90" x2="140" y2="90" class="model"/>
    
    <!-- Data points -->
    <circle cx="20" cy="110" r="4" class="data-point"/>
    <circle cx="40" cy="60" r="4" class="data-point"/>
    <circle cx="60" cy="80" r="4" class="data-point"/>
    <circle cx="80" cy="40" r="4" class="data-point"/>
    <circle cx="100" cy="90" r="4" class="data-point"/>
    <circle cx="120" cy="70" r="4" class="data-point"/>
    
    <text x="75" y="140" class="annotation">High bias, low variance</text>
  </g>
  
  <!-- Middle right panel: Good fit example -->
  <g transform="translate(600, 80)">
    <rect x="0" y="0" width="150" height="150" fill="#f9f9f9" stroke="#ccc" rx="5" ry="5"/>
    <text x="75" y="15" class="annotation-title">Good Fit</text>
    
    <!-- True function and good model -->
    <path d="M 10 125 C 30 50, 70 100, 90 25 C 110 80, 130 60, 140 125" class="true-fn"/>
    <path d="M 10 125 C 30 55, 70 95, 90 30 C 110 75, 130 65, 140 125" class="model"/>
    
    <!-- Data points -->
    <circle cx="20" cy="110" r="4" class="data-point"/>
    <circle cx="40" cy="60" r="4" class="data-point"/>
    <circle cx="60" cy="80" r="4" class="data-point"/>
    <circle cx="80" cy="40" r="4" class="data-point"/>
    <circle cx="100" cy="90" r="4" class="data-point"/>
    <circle cx="120" cy="70" r="4" class="data-point"/>
    
    <text x="75" y="140" class="annotation">Balanced bias and variance</text>
  </g>
  
  <!-- Lower right panel: Overfitting example -->
  <g transform="translate(400, 250)">
    <rect x="0" y="0" width="150" height="150" fill="#f9f9f9" stroke="#ccc" rx="5" ry="5"/>
    <text x="75" y="15" class="annotation-title">Overfitting</text>
    
    <!-- True function and overfit model -->
    <path d="M 10 125 C 30 50, 70 100, 90 25 C 110 80, 130 60, 140 125" class="true-fn"/>
    <path d="M 10 125 C 20 110, 25 80, 40 60 C 50 50, 60 80, 80 40 C 90 30, 100 90, 120 70 C 130 60, 135 85, 140 125" class="model"/>
    
    <!-- Data points -->
    <circle cx="20" cy="110" r="4" class="data-point"/>
    <circle cx="40" cy="60" r="4" class="data-point"/>
    <circle cx="60" cy="80" r="4" class="data-point"/>
    <circle cx="80" cy="40" r="4" class="data-point"/>
    <circle cx="100" cy="90" r="4" class="data-point"/>
    <circle cx="120" cy="70" r="4" class="data-point"/>
    
    <text x="75" y="140" class="annotation">Low bias, high variance</text>
  </g>
  
  <!-- Lower right panel: Noise sensitivity -->
  <g transform="translate(600, 250)">
    <rect x="0" y="0" width="150" height="150" fill="#f9f9f9" stroke="#ccc" rx="5" ry="5"/>
    <text x="75" y="15" class="annotation-title">Noise Sensitivity</text>
    
    <!-- Multiple overfitting models -->
    <path d="M 10 125 C 30 50, 70 100, 90 25 C 110 80, 130 60, 140 125" class="true-fn"/>
    <path d="M 10 125 C 20 100, 25 60, 40 60 C 50 50, 60 80, 80 40 C 90 30, 100 90, 120 70 C 130 60, 135 85, 140 125" class="model" stroke-opacity="0.4"/>
    <path d="M 10 125 C 20 110, 30 70, 40 65 C 55 50, 60 70, 80 30 C 95 35, 100 80, 120 75 C 125 70, 135 95, 140 125" class="model" stroke-opacity="0.4"/>
    <path d="M 10 125 C 20 105, 25 75, 40 55 C 45 45, 60 90, 80 50 C 85 25, 100 100, 120 65 C 135 55, 130 90, 140 125" class="model" stroke-opacity="0.4"/>
    
    <!-- Data points -->
    <circle cx="20" cy="110" r="4" class="data-point"/>
    <circle cx="40" cy="60" r="4" class="data-point"/>
    <circle cx="60" cy="80" r="4" class="data-point"/>
    <circle cx="80" cy="40" r="4" class="data-point"/>
    <circle cx="100" cy="90" r="4" class="data-point"/>
    <circle cx="120" cy="70" r="4" class="data-point"/>
    
    <text x="75" y="140" class="annotation">High variance models are</text>
    <text x="75" y="140" dy="12" class="annotation">sensitive to data noise</text>
  </g>
  
  <!-- Legend -->
  <g transform="translate(50, 410)">
    <line x1="0" y1="0" x2="20" y2="0" class="true-fn"/>
    <text x="25" y="4" class="label" text-anchor="start">True Function</text>
    
    <line x1="140" y1="0" x2="160" y2="0" class="model"/>
    <text x="165" y="4" class="label" text-anchor="start">Model Prediction</text>
    
    <circle cx="260" cy="0" r="4" class="data-point"/>
    <text x="270" y="4" class="label" text-anchor="start">Training Data</text>
    
    <line x1="360" y1="0" x2="380" y2="0" class="curve bias"/>
    <text x="385" y="4" class="label" text-anchor="start">Bias Component</text>
    
    <line x1="500" y1="0" x2="520" y2="0" class="curve variance"/>
    <text x="525" y="4" class="label" text-anchor="start">Variance Component</text>
    
    <line x1="650" y1="0" x2="670" y2="0" class="curve total-error"/>
    <text x="675" y="4" class="label" text-anchor="start">Total Error</text>
  </g>
  
  <!-- Bottom annotation -->
  <text x="400" y="450" class="annotation" text-anchor="middle">
    Total Error = Bias² + Variance + Irreducible Error
  </text>
</svg>