<?xml version="1.0" encoding="UTF-8" standalone="no"?>
<svg xmlns="http://www.w3.org/2000/svg" width="850" height="360" viewBox="0 0 850 360">
  <defs>
    <!-- Filter for shadow effect -->
    <filter id="shadow" x="-20%" y="-20%" width="140%" height="140%">
      <feGaussianBlur in="SourceAlpha" stdDeviation="2" result="blur"/>
      <feOffset dx="2" dy="2" result="offsetBlur"/>
      <feComponentTransfer>
        <feFuncA type="linear" slope="0.4"/>
      </feComponentTransfer>
      <feMerge>
        <feMergeNode in="offsetBlur"/>
        <feMergeNode in="SourceGraphic"/>
      </feMerge>
    </filter>
    
    <!-- Arrow marker definition -->
    <marker id="arrowhead" markerWidth="10" markerHeight="7" refX="0" refY="3.5" orient="auto">
      <polygon points="0 0, 10 3.5, 0 7" fill="#333"/>
    </marker>
    
    <!-- Curved arrow marker definition -->
    <marker id="curved-arrow" markerWidth="10" markerHeight="7" refX="0" refY="3.5" orient="auto">
      <polygon points="0 0, 10 3.5, 0 7" fill="#4CAF50"/>
    </marker>
  </defs>
  
  <!-- Background -->
  <rect width="850" height="360" fill="#fff"/>
  
  <!-- Title -->
  <text x="425" y="35" font-family="Arial, sans-serif" font-size="22" text-anchor="middle" font-weight="bold" fill="#333">
    Diffusion Model Process
  </text>
  
  <!-- Forward Diffusion Process Label -->
  <text x="425" y="70" font-family="Arial, sans-serif" font-size="16" text-anchor="middle" fill="#D32F2F">
    Forward Diffusion Process (Adding Noise)
  </text>
  <line x1="200" y1="80" x2="650" y2="80" stroke="#D32F2F" stroke-width="2" stroke-dasharray="5,3"/>
  
  <!-- Reverse Diffusion Process Label -->
  <text x="425" y="310" font-family="Arial, sans-serif" font-size="16" text-anchor="middle" fill="#4CAF50">
    Reverse Diffusion Process (Removing Noise)
  </text>
  <line x1="200" y1="320" x2="650" y2="320" stroke="#4CAF50" stroke-width="2" stroke-dasharray="5,3"/>
  
  <!-- Image boxes at various noise levels -->
  <!-- Original Image -->
  <rect x="70" y="120" width="100" height="100" rx="5" ry="5" fill="#f5f5f5" stroke="#333" stroke-width="2" filter="url(#shadow)"/>
  <text x="120" y="240" font-family="Arial, sans-serif" font-size="14" text-anchor="middle" fill="#333">
    Original Image
  </text>
  <text x="120" y="257" font-family="Arial, sans-serif" font-size="12" text-anchor="middle" fill="#666">
    t = 0
  </text>
  
  <!-- Image with slight noise -->
  <rect x="220" y="120" width="100" height="100" rx="5" ry="5" fill="#f5f5f5" stroke="#333" stroke-width="2" filter="url(#shadow)"/>
  <rect x="220" y="120" width="100" height="100" rx="5" ry="5" fill="url(#noise20)" fill-opacity="0.2" stroke="none"/>
  <text x="270" y="240" font-family="Arial, sans-serif" font-size="14" text-anchor="middle" fill="#333">
    Low Noise
  </text>
  <text x="270" y="257" font-family="Arial, sans-serif" font-size="12" text-anchor="middle" fill="#666">
    t = 0.25T
  </text>
  
  <!-- Image with medium noise -->
  <rect x="370" y="120" width="100" height="100" rx="5" ry="5" fill="#f5f5f5" stroke="#333" stroke-width="2" filter="url(#shadow)"/>
  <rect x="370" y="120" width="100" height="100" rx="5" ry="5" fill="url(#noise50)" fill-opacity="0.5" stroke="none"/>
  <text x="420" y="240" font-family="Arial, sans-serif" font-size="14" text-anchor="middle" fill="#333">
    Medium Noise
  </text>
  <text x="420" y="257" font-family="Arial, sans-serif" font-size="12" text-anchor="middle" fill="#666">
    t = 0.5T
  </text>
  
  <!-- Image with high noise -->
  <rect x="520" y="120" width="100" height="100" rx="5" ry="5" fill="#f5f5f5" stroke="#333" stroke-width="2" filter="url(#shadow)"/>
  <rect x="520" y="120" width="100" height="100" rx="5" ry="5" fill="url(#noise80)" fill-opacity="0.8" stroke="none"/>
  <text x="570" y="240" font-family="Arial, sans-serif" font-size="14" text-anchor="middle" fill="#333">
    High Noise
  </text>
  <text x="570" y="257" font-family="Arial, sans-serif" font-size="12" text-anchor="middle" fill="#666">
    t = 0.75T
  </text>
  
  <!-- Pure noise -->
  <rect x="670" y="120" width="100" height="100" rx="5" ry="5" fill="#f5f5f5" stroke="#333" stroke-width="2" filter="url(#shadow)"/>
  <rect x="670" y="120" width="100" height="100" rx="5" ry="5" fill="url(#noise100)" fill-opacity="1" stroke="none"/>
  <text x="720" y="240" font-family="Arial, sans-serif" font-size="14" text-anchor="middle" fill="#333">
    Pure Noise
  </text>
  <text x="720" y="257" font-family="Arial, sans-serif" font-size="12" text-anchor="middle" fill="#666">
    t = T
  </text>
  
  <!-- Forward diffusion arrows -->
  <path d="M170,170 L220,170" stroke="#D32F2F" stroke-width="2" marker-end="url(#arrowhead)"/>
  <path d="M320,170 L370,170" stroke="#D32F2F" stroke-width="2" marker-end="url(#arrowhead)"/>
  <path d="M470,170 L520,170" stroke="#D32F2F" stroke-width="2" marker-end="url(#arrowhead)"/>
  <path d="M620,170 L670,170" stroke="#D32F2F" stroke-width="2" marker-end="url(#arrowhead)"/>
  
  <!-- Reverse process curved arrow -->
  <path d="M670,200 C670,250 70,250 70,200" stroke="#4CAF50" stroke-width="3" stroke-dasharray="none" fill="none" marker-end="url(#curved-arrow)"/>
  <text x="370" y="280" font-family="Arial, sans-serif" font-size="14" text-anchor="middle" fill="#4CAF50">
    Neural Network Learns to Reverse Diffusion Steps
  </text>
  
  <!-- Noise patterns (using random dots) -->
  <pattern id="noise20" patternUnits="userSpaceOnUse" width="100" height="100">
    <rect width="100" height="100" fill="#000" fill-opacity="0"/>
    <g fill="#000" fill-opacity="0.2">
      <circle cx="10" cy="10" r="1"/>
      <circle cx="30" cy="20" r="1"/>
      <circle cx="50" cy="15" r="1"/>
      <circle cx="70" cy="30" r="1"/>
      <circle cx="90" cy="10" r="1"/>
      <circle cx="20" cy="40" r="1"/>
      <circle cx="40" cy="60" r="1"/>
      <circle cx="60" cy="50" r="1"/>
      <circle cx="80" cy="70" r="1"/>
      <circle cx="10" cy="90" r="1"/>
      <circle cx="30" cy="80" r="1"/>
      <circle cx="50" cy="90" r="1"/>
      <circle cx="70" cy="80" r="1"/>
      <circle cx="90" cy="70" r="1"/>
    </g>
  </pattern>
  
  <pattern id="noise50" patternUnits="userSpaceOnUse" width="100" height="100">
    <rect width="100" height="100" fill="#000" fill-opacity="0"/>
    <g fill="#000" fill-opacity="0.5">
      <circle cx="10" cy="10" r="1.5"/>
      <circle cx="30" cy="20" r="1.5"/>
      <circle cx="50" cy="15" r="1.5"/>
      <circle cx="70" cy="30" r="1.5"/>
      <circle cx="90" cy="10" r="1.5"/>
      <circle cx="20" cy="40" r="1.5"/>
      <circle cx="40" cy="60" r="1.5"/>
      <circle cx="60" cy="50" r="1.5"/>
      <circle cx="80" cy="70" r="1.5"/>
      <circle cx="10" cy="90" r="1.5"/>
      <circle cx="30" cy="80" r="1.5"/>
      <circle cx="50" cy="90" r="1.5"/>
      <circle cx="70" cy="80" r="1.5"/>
      <circle cx="90" cy="70" r="1.5"/>
      <circle cx="15" cy="25" r="1.5"/>
      <circle cx="35" cy="45" r="1.5"/>
      <circle cx="55" cy="65" r="1.5"/>
      <circle cx="75" cy="85" r="1.5"/>
      <circle cx="95" cy="5" r="1.5"/>
      <circle cx="25" cy="15" r="1.5"/>
      <circle cx="45" cy="35" r="1.5"/>
      <circle cx="65" cy="55" r="1.5"/>
      <circle cx="85" cy="75" r="1.5"/>
      <circle cx="5" cy="95" r="1.5"/>
    </g>
  </pattern>
  
  <pattern id="noise80" patternUnits="userSpaceOnUse" width="100" height="100">
    <rect width="100" height="100" fill="#000" fill-opacity="0"/>
    <g fill="#000" fill-opacity="0.8">
      <circle cx="10" cy="10" r="2"/>
      <circle cx="30" cy="20" r="2"/>
      <circle cx="50" cy="15" r="2"/>
      <circle cx="70" cy="30" r="2"/>
      <circle cx="90" cy="10" r="2"/>
      <circle cx="20" cy="40" r="2"/>
      <circle cx="40" cy="60" r="2"/>
      <circle cx="60" cy="50" r="2"/>
      <circle cx="80" cy="70" r="2"/>
      <circle cx="10" cy="90" r="2"/>
      <circle cx="30" cy="80" r="2"/>
      <circle cx="50" cy="90" r="2"/>
      <circle cx="70" cy="80" r="2"/>
      <circle cx="90" cy="70" r="2"/>
      <circle cx="15" cy="25" r="2"/>
      <circle cx="35" cy="45" r="2"/>
      <circle cx="55" cy="65" r="2"/>
      <circle cx="75" cy="85" r="2"/>
      <circle cx="95" cy="5" r="2"/>
      <circle cx="25" cy="15" r="2"/>
      <circle cx="45" cy="35" r="2"/>
      <circle cx="65" cy="55" r="2"/>
      <circle cx="85" cy="75" r="2"/>
      <circle cx="5" cy="95" r="2"/>
      <circle cx="12" cy="32" r="2"/>
      <circle cx="27" cy="47" r="2"/>
      <circle cx="42" cy="72" r="2"/>
      <circle cx="57" cy="22" r="2"/>
      <circle cx="72" cy="37" r="2"/>
      <circle cx="87" cy="52" r="2"/>
      <circle cx="17" cy="67" r="2"/>
      <circle cx="32" cy="92" r="2"/>
      <circle cx="47" cy="7" r="2"/>
      <circle cx="62" cy="82" r="2"/>
      <circle cx="77" cy="27" r="2"/>
      <circle cx="92" cy="42" r="2"/>
    </g>
  </pattern>
  
  <pattern id="noise100" patternUnits="userSpaceOnUse" width="100" height="100">
    <rect width="100" height="100" fill="#000" fill-opacity="0"/>
    <g fill="#000">
      <circle cx="10" cy="10" r="2.5"/>
      <circle cx="30" cy="20" r="2.5"/>
      <circle cx="50" cy="15" r="2.5"/>
      <circle cx="70" cy="30" r="2.5"/>
      <circle cx="90" cy="10" r="2.5"/>
      <circle cx="20" cy="40" r="2.5"/>
      <circle cx="40" cy="60" r="2.5"/>
      <circle cx="60" cy="50" r="2.5"/>
      <circle cx="80" cy="70" r="2.5"/>
      <circle cx="10" cy="90" r="2.5"/>
      <circle cx="30" cy="80" r="2.5"/>
      <circle cx="50" cy="90" r="2.5"/>
      <circle cx="70" cy="80" r="2.5"/>
      <circle cx="90" cy="70" r="2.5"/>
      <circle cx="15" cy="25" r="2.5"/>
      <circle cx="35" cy="45" r="2.5"/>
      <circle cx="55" cy="65" r="2.5"/>
      <circle cx="75" cy="85" r="2.5"/>
      <circle cx="95" cy="5" r="2.5"/>
      <circle cx="25" cy="15" r="2.5"/>
      <circle cx="45" cy="35" r="2.5"/>
      <circle cx="65" cy="55" r="2.5"/>
      <circle cx="85" cy="75" r="2.5"/>
      <circle cx="5" cy="95" r="2.5"/>
      <circle cx="12" cy="32" r="2.5"/>
      <circle cx="27" cy="47" r="2.5"/>
      <circle cx="42" cy="72" r="2.5"/>
      <circle cx="57" cy="22" r="2.5"/>
      <circle cx="72" cy="37" r="2.5"/>
      <circle cx="87" cy="52" r="2.5"/>
      <circle cx="17" cy="67" r="2.5"/>
      <circle cx="32" cy="92" r="2.5"/>
      <circle cx="47" cy="7" r="2.5"/>
      <circle cx="62" cy="82" r="2.5"/>
      <circle cx="77" cy="27" r="2.5"/>
      <circle cx="92" cy="42" r="2.5"/>
      <circle cx="7" cy="57" r="2.5"/>
      <circle cx="22" cy="77" r="2.5"/>
      <circle cx="37" cy="17" r="2.5"/>
      <circle cx="52" cy="32" r="2.5"/>
      <circle cx="67" cy="42" r="2.5"/>
      <circle cx="82" cy="62" r="2.5"/>
      <circle cx="97" cy="87" r="2.5"/>
    </g>
  </pattern>
  
  <!-- Equation labels -->
  <text x="190" y="145" font-family="Arial, sans-serif" font-size="12" text-anchor="middle" fill="#D32F2F">
    x_t = √αₜx_{t-1} + √(1-αₜ)ε
  </text>
  
  <text x="370" y="330" font-family="Arial, sans-serif" font-size="12" text-anchor="middle" fill="#4CAF50">
    xₜ₋₁ = 1/√αₜ(xₜ - (1-αₜ)/√(1-ᾱₜ)εₜ)
  </text>
</svg>