<?xml version="1.0" encoding="UTF-8" standalone="no"?>
<svg width="800" height="600" xmlns="http://www.w3.org/2000/svg">
  <!-- Background -->
  <rect width="800" height="600" fill="#f9f9f9"/>
  
  <!-- Title -->
  <text x="400" y="40" font-family="Arial" font-size="24" font-weight="bold" text-anchor="middle">AI-Accelerated Neuroscience Discovery Cycle</text>
  <text x="400" y="70" font-family="Arial" font-size="16" text-anchor="middle">Modern Scientific Approach Using AI-Enhanced Methods</text>
  
  <!-- Main Discovery Cycle -->
  <circle cx="400" cy="310" r="200" fill="#f9f9f9" stroke="#9966cc" stroke-width="3" stroke-dasharray="10,5"/>
  
  <!-- Center Icon -->
  <circle cx="400" cy="310" r="50" fill="#9966cc" fill-opacity="0.2" stroke="#9966cc" stroke-width="2"/>
  <text x="400" y="305" font-family="Arial" font-size="16" font-weight="bold" text-anchor="middle">NeuroAI</text>
  <text x="400" y="325" font-family="Arial" font-size="12" text-anchor="middle">Discovery</text>
  
  <!-- Cycle Steps: 5 key stages of the discovery cycle -->
  <!-- Step 1: Data Acquisition -->
  <circle cx="400" cy="110" r="60" fill="#ffcccc" fill-opacity="0.4" stroke="#cc0000" stroke-width="2"/>
  <text x="400" y="95" font-family="Arial" font-size="14" font-weight="bold" text-anchor="middle">Data</text>
  <text x="400" y="115" font-family="Arial" font-size="14" font-weight="bold" text-anchor="middle">Acquisition</text>
  <text x="400" y="135" font-family="Arial" font-size="10" text-anchor="middle">Recording and collection</text>
  
  <!-- Step 2: Data Processing -->
  <circle cx="600" cy="210" r="60" fill="#ccccff" fill-opacity="0.4" stroke="#0066cc" stroke-width="2"/>
  <text x="600" y="195" font-family="Arial" font-size="14" font-weight="bold" text-anchor="middle">Data</text>
  <text x="600" y="215" font-family="Arial" font-size="14" font-weight="bold" text-anchor="middle">Processing</text>
  <text x="600" y="235" font-family="Arial" font-size="10" text-anchor="middle">Cleaning and preparation</text>
  
  <!-- Step 3: Analysis &amp; Modeling -->
  <circle cx="600" cy="410" r="60" fill="#ccccff" fill-opacity="0.4" stroke="#0066cc" stroke-width="2"/>
  <text x="600" y="395" font-family="Arial" font-size="14" font-weight="bold" text-anchor="middle">Analysis &amp;</text>
  <text x="600" y="415" font-family="Arial" font-size="14" font-weight="bold" text-anchor="middle">Modeling</text>
  <text x="600" y="435" font-family="Arial" font-size="10" text-anchor="middle">Insights extraction</text>
  
  <!-- Step 4: Hypothesis Testing -->
  <circle cx="400" cy="510" r="60" fill="#ffcccc" fill-opacity="0.4" stroke="#cc0000" stroke-width="2"/>
  <text x="400" y="495" font-family="Arial" font-size="14" font-weight="bold" text-anchor="middle">Hypothesis</text>
  <text x="400" y="515" font-family="Arial" font-size="14" font-weight="bold" text-anchor="middle">Testing</text>
  <text x="400" y="535" font-family="Arial" font-size="10" text-anchor="middle">Validating predictions</text>
  
  <!-- Step 5: Theory Building -->
  <circle cx="200" cy="410" r="60" fill="#ffcccc" fill-opacity="0.4" stroke="#cc0000" stroke-width="2"/>
  <text x="200" y="395" font-family="Arial" font-size="14" font-weight="bold" text-anchor="middle">Theory</text>
  <text x="200" y="415" font-family="Arial" font-size="14" font-weight="bold" text-anchor="middle">Building</text>
  <text x="200" y="435" font-family="Arial" font-size="10" text-anchor="middle">New models of brain function</text>
  
  <!-- Step 6: New Experiments -->
  <circle cx="200" cy="210" r="60" fill="#ffcccc" fill-opacity="0.4" stroke="#cc0000" stroke-width="2"/>
  <text x="200" y="195" font-family="Arial" font-size="14" font-weight="bold" text-anchor="middle">New</text>
  <text x="200" y="215" font-family="Arial" font-size="14" font-weight="bold" text-anchor="middle">Experiments</text>
  <text x="200" y="235" font-family="Arial" font-size="10" text-anchor="middle">Target testing and exploration</text>
  
  <!-- Connecting Arrows -->
  <path d="M 400 170 A 180 180 0 0 1 545 210" stroke="#9966cc" stroke-width="2" fill="none" marker-end="url(#arrowhead)"/>
  <path d="M 600 270 A 180 180 0 0 1 600 350" stroke="#9966cc" stroke-width="2" fill="none" marker-end="url(#arrowhead)"/>
  <path d="M 545 410 A 180 180 0 0 1 455 470" stroke="#9966cc" stroke-width="2" fill="none" marker-end="url(#arrowhead)"/>
  <path d="M 345 470 A 180 180 0 0 1 255 410" stroke="#9966cc" stroke-width="2" fill="none" marker-end="url(#arrowhead)"/>
  <path d="M 200 350 A 180 180 0 0 1 200 270" stroke="#9966cc" stroke-width="2" fill="none" marker-end="url(#arrowhead)"/>
  <path d="M 255 210 A 180 180 0 0 1 345 150" stroke="#9966cc" stroke-width="2" fill="none" marker-end="url(#arrowhead)"/>
  
  <defs>
    <marker id="arrowhead" markerWidth="10" markerHeight="7" refX="10" refY="3.5" orient="auto">
      <polygon points="0 0, 10 3.5, 0 7" fill="#9966cc"/>
    </marker>
  </defs>
  
  <!-- AI Tools at Each Stage (text boxes) -->
  <!-- Data Acquisition AI -->
  <rect x="320" y="50" width="160" height="30" rx="5" ry="5" fill="#ccccff" fill-opacity="0.3" stroke="#0066cc" stroke-width="1"/>
  <text x="400" y="70" font-family="Arial" font-size="11" text-anchor="middle">AI-guided experimental design</text>
  
  <!-- Data Processing AI -->
  <rect x="640" y="160" width="140" height="30" rx="5" ry="5" fill="#ccccff" fill-opacity="0.3" stroke="#0066cc" stroke-width="1"/>
  <text x="710" y="180" font-family="Arial" font-size="11" text-anchor="middle">Automated data pipelines</text>
  
  <!-- Analysis AI -->
  <rect x="640" y="460" width="140" height="30" rx="5" ry="5" fill="#ccccff" fill-opacity="0.3" stroke="#0066cc" stroke-width="1"/>
  <text x="710" y="480" font-family="Arial" font-size="11" text-anchor="middle">ML pattern recognition</text>
  
  <!-- Hypothesis Testing AI -->
  <rect x="320" y="550" width="160" height="30" rx="5" ry="5" fill="#ccccff" fill-opacity="0.3" stroke="#0066cc" stroke-width="1"/>
  <text x="400" y="570" font-family="Arial" font-size="11" text-anchor="middle">Simulation and prediction</text>
  
  <!-- Theory Building AI -->
  <rect x="20" y="460" width="140" height="30" rx="5" ry="5" fill="#ccccff" fill-opacity="0.3" stroke="#0066cc" stroke-width="1"/>
  <text x="90" y="480" font-family="Arial" font-size="11" text-anchor="middle">Generative models</text>
  
  <!-- New Experiments AI -->
  <rect x="20" y="160" width="140" height="30" rx="5" ry="5" fill="#ccccff" fill-opacity="0.3" stroke="#0066cc" stroke-width="1"/>
  <text x="90" y="180" font-family="Arial" font-size="11" text-anchor="middle">Active learning systems</text>
  
  <!-- AI Enhanced Methods (Detailed text) -->
  <!-- Data Acquisition Techniques -->
  <rect x="450" y="130" width="120" height="50" fill="#f9f9f9" stroke="#cc0000" stroke-width="1" rx="5" ry="5"/>
  <text x="510" y="150" font-family="Arial" font-size="10" text-anchor="middle">• Adaptive recordings</text>
  <text x="510" y="165" font-family="Arial" font-size="10" text-anchor="middle">• Closed-loop systems</text>
  <text x="510" y="180" font-family="Arial" font-size="10" text-anchor="middle">• Automated microscopy</text>
  
  <!-- Data Processing Techniques -->
  <rect x="530" y="260" width="120" height="50" fill="#f9f9f9" stroke="#0066cc" stroke-width="1" rx="5" ry="5"/>
  <text x="590" y="280" font-family="Arial" font-size="10" text-anchor="middle">• Spike sorting</text>
  <text x="590" y="295" font-family="Arial" font-size="10" text-anchor="middle">• Artifact removal</text>
  <text x="590" y="310" font-family="Arial" font-size="10" text-anchor="middle">• Motion correction</text>
  
  <!-- Analysis Techniques -->
  <rect x="530" y="340" width="120" height="50" fill="#f9f9f9" stroke="#0066cc" stroke-width="1" rx="5" ry="5"/>
  <text x="590" y="360" font-family="Arial" font-size="10" text-anchor="middle">• Neural decoding</text>
  <text x="590" y="375" font-family="Arial" font-size="10" text-anchor="middle">• Dimensionality reduction</text>
  <text x="590" y="390" font-family="Arial" font-size="10" text-anchor="middle">• Network analysis</text>
  
  <!-- Hypothesis Testing Techniques -->
  <rect x="450" y="420" width="120" height="50" fill="#f9f9f9" stroke="#cc0000" stroke-width="1" rx="5" ry="5"/>
  <text x="510" y="440" font-family="Arial" font-size="10" text-anchor="middle">• Virtual experiments</text>
  <text x="510" y="455" font-family="Arial" font-size="10" text-anchor="middle">• Causal inference</text>
  <text x="510" y="470" font-family="Arial" font-size="10" text-anchor="middle">• In silico testing</text>
  
  <!-- Theory Building Techniques -->
  <rect x="270" y="410" width="120" height="50" fill="#f9f9f9" stroke="#cc0000" stroke-width="1" rx="5" ry="5"/>
  <text x="330" y="430" font-family="Arial" font-size="10" text-anchor="middle">• Computational models</text>
  <text x="330" y="445" font-family="Arial" font-size="10" text-anchor="middle">• Neural simulations</text>
  <text x="330" y="460" font-family="Arial" font-size="10" text-anchor="middle">• Integrative theories</text>
  
  <!-- New Experiments Techniques -->
  <rect x="270" y="210" width="120" height="50" fill="#f9f9f9" stroke="#cc0000" stroke-width="1" rx="5" ry="5"/>
  <text x="330" y="230" font-family="Arial" font-size="10" text-anchor="middle">• Model predictions</text>
  <text x="330" y="245" font-family="Arial" font-size="10" text-anchor="middle">• Optimal stimuli</text>
  <text x="330" y="260" font-family="Arial" font-size="10" text-anchor="middle">• Targeted manipulations</text>
  
  <!-- Key Outcome Boxes -->
  <rect x="330" y="265" width="140" height="25" rx="5" ry="5" fill="#9966cc" fill-opacity="0.2" stroke="#9966cc" stroke-width="1"/>
  <text x="400" y="282" font-family="Arial" font-size="12" text-anchor="middle">Mechanistic Understanding</text>
  
  <rect x="330" y="330" width="140" height="25" rx="5" ry="5" fill="#9966cc" fill-opacity="0.2" stroke="#9966cc" stroke-width="1"/>
  <text x="400" y="347" font-family="Arial" font-size="12" text-anchor="middle">Predictive Power</text>
  
  <!-- Legend -->
  <rect x="650" y="510" width="130" height="75" fill="#f9f9f9" stroke="#000000" stroke-width="1"/>
  <text x="715" y="525" font-family="Arial" font-size="12" font-weight="bold" text-anchor="middle">Legend</text>
  
  <circle cx="665" y="540" r="5" fill="#ffcccc" fill-opacity="0.4" stroke="#cc0000" stroke-width="1"/>
  <text x="715" y="543" font-family="Arial" font-size="10" text-anchor="middle">Neuroscience Stages</text>
  
  <circle cx="665" y="560" r="5" fill="#ccccff" fill-opacity="0.4" stroke="#0066cc" stroke-width="1"/>
  <text x="715" y="563" font-family="Arial" font-size="10" text-anchor="middle">AI-Enhanced Stages</text>
  
  <circle cx="665" y="580" r="5" fill="#9966cc" fill-opacity="0.2" stroke="#9966cc" stroke-width="1"/>
  <text x="715" y="583" font-family="Arial" font-size="10" text-anchor="middle">Integration Points</text>
  
  <!-- Figure Caption -->
  <text x="400" y="590" font-family="Arial" font-size="12" text-anchor="middle">Figure 21.1: The modern neuroscience discovery cycle enhanced with AI tools at each stage</text>
</svg>