<?xml version="1.0" encoding="UTF-8" standalone="no"?>
<svg width="800" height="600" xmlns="http://www.w3.org/2000/svg">
  <!-- Background -->
  <rect width="800" height="600" fill="#f9f9f9"/>
  
  <!-- Title -->
  <text x="400" y="40" font-family="Arial" font-size="24" font-weight="bold" text-anchor="middle">Human-AI Interaction Spectrum</text>
  <text x="400" y="70" font-family="Arial" font-size="16" text-anchor="middle">From Explicit to Neural Interfaces</text>
  
  <!-- Main Diagram -->
  <rect x="100" y="120" width="600" height="360" rx="10" ry="10" fill="#f9f9f9" stroke="#9966cc" stroke-width="2"/>
  
  <!-- Interaction Levels Row Headers -->
  <text x="150" y="150" font-family="Arial" font-size="14" font-weight="bold" text-anchor="middle">Interface Type</text>
  <text x="325" y="150" font-family="Arial" font-size="14" font-weight="bold" text-anchor="middle">Human Input</text>
  <text x="475" y="150" font-family="Arial" font-size="14" font-weight="bold" text-anchor="middle">AI Processing</text>
  <text x="625" y="150" font-family="Arial" font-size="14" font-weight="bold" text-anchor="middle">Interaction Properties</text>
  
  <!-- Dividing Lines -->
  <line x1="100" y1="160" x2="700" y2="160" stroke="#9966cc" stroke-width="1"/>
  <line x1="200" y1="120" x2="200" y2="480" stroke="#9966cc" stroke-width="1"/>
  <line x1="375" y1="120" x2="375" y2="480" stroke="#9966cc" stroke-width="1"/>
  <line x1="550" y1="120" x2="550" y2="480" stroke="#9966cc" stroke-width="1"/>
  
  <!-- Level 1: Traditional Interfaces -->
  <rect x="110" y="170" width="80" height="60" rx="5" ry="5" fill="#ccccff" fill-opacity="0.3" stroke="#0066cc" stroke-width="1"/>
  <text x="150" y="195" font-family="Arial" font-size="14" font-weight="bold" text-anchor="middle">Traditional</text>
  <text x="150" y="215" font-family="Arial" font-size="14" text-anchor="middle">Interfaces</text>
  
  <text x="230" y="185" font-family="Arial" font-size="12" text-anchor="start">• Keyboard/Mouse Input</text>
  <text x="230" y="205" font-family="Arial" font-size="12" text-anchor="start">• Touch Screens</text>
  <text x="230" y="225" font-family="Arial" font-size="12" text-anchor="start">• Voice Commands</text>
  
  <text x="385" y="185" font-family="Arial" font-size="12" text-anchor="start">• Text/Speech Processing</text>
  <text x="385" y="205" font-family="Arial" font-size="12" text-anchor="start">• Gesture Recognition</text>
  <text x="385" y="225" font-family="Arial" font-size="12" text-anchor="start">• Command Execution</text>
  
  <text x="560" y="185" font-family="Arial" font-size="12" text-anchor="start">• Explicit Interaction</text>
  <text x="560" y="205" font-family="Arial" font-size="12" text-anchor="start">• Sequential Processing</text>
  <text x="560" y="225" font-family="Arial" font-size="12" text-anchor="start">• Low Bandwidth</text>
  
  <!-- Level 2: Implicit Interfaces -->
  <rect x="110" y="240" width="80" height="60" rx="5" ry="5" fill="#ccccff" fill-opacity="0.5" stroke="#0066cc" stroke-width="1"/>
  <text x="150" y="265" font-family="Arial" font-size="14" font-weight="bold" text-anchor="middle">Implicit</text>
  <text x="150" y="285" font-family="Arial" font-size="14" text-anchor="middle">Interfaces</text>
  
  <text x="230" y="255" font-family="Arial" font-size="12" text-anchor="start">• Eye Tracking</text>
  <text x="230" y="275" font-family="Arial" font-size="12" text-anchor="start">• Facial Expressions</text>
  <text x="230" y="295" font-family="Arial" font-size="12" text-anchor="start">• Physiological Signals</text>
  
  <text x="385" y="255" font-family="Arial" font-size="12" text-anchor="start">• Attention Modeling</text>
  <text x="385" y="275" font-family="Arial" font-size="12" text-anchor="start">• Emotion Recognition</text>
  <text x="385" y="295" font-family="Arial" font-size="12" text-anchor="start">• Context Awareness</text>
  
  <text x="560" y="255" font-family="Arial" font-size="12" text-anchor="start">• Passive Monitoring</text>
  <text x="560" y="275" font-family="Arial" font-size="12" text-anchor="start">• Reduced Cognitive Load</text>
  <text x="560" y="295" font-family="Arial" font-size="12" text-anchor="start">• Medium Bandwidth</text>
  
  <!-- Level 3: Peripheral Neural -->
  <rect x="110" y="310" width="80" height="60" rx="5" ry="5" fill="#ffcccc" fill-opacity="0.5" stroke="#cc0000" stroke-width="1"/>
  <text x="150" y="335" font-family="Arial" font-size="14" font-weight="bold" text-anchor="middle">Peripheral</text>
  <text x="150" y="355" font-family="Arial" font-size="14" text-anchor="middle">Neural</text>
  
  <text x="230" y="325" font-family="Arial" font-size="12" text-anchor="start">• EMG Sensors</text>
  <text x="230" y="345" font-family="Arial" font-size="12" text-anchor="start">• EEG Headsets</text>
  <text x="230" y="365" font-family="Arial" font-size="12" text-anchor="start">• Neuromuscular Bands</text>
  
  <text x="385" y="325" font-family="Arial" font-size="12" text-anchor="start">• Neural Pattern Detection</text>
  <text x="385" y="345" font-family="Arial" font-size="12" text-anchor="start">• Intent Classification</text>
  <text x="385" y="365" font-family="Arial" font-size="12" text-anchor="start">• Continuous Adaptation</text>
  
  <text x="560" y="325" font-family="Arial" font-size="12" text-anchor="start">• Semi-Intuitive Control</text>
  <text x="560" y="345" font-family="Arial" font-size="12" text-anchor="start">• Bidirectional Feedback</text>
  <text x="560" y="365" font-family="Arial" font-size="12" text-anchor="start">• High Bandwidth</text>
  
  <!-- Level 4: Direct Neural -->
  <rect x="110" y="380" width="80" height="60" rx="5" ry="5" fill="#ffcccc" fill-opacity="0.7" stroke="#cc0000" stroke-width="1"/>
  <text x="150" y="405" font-family="Arial" font-size="14" font-weight="bold" text-anchor="middle">Direct</text>
  <text x="150" y="425" font-family="Arial" font-size="14" text-anchor="middle">Neural</text>
  
  <text x="230" y="395" font-family="Arial" font-size="12" text-anchor="start">• Implanted Electrodes</text>
  <text x="230" y="415" font-family="Arial" font-size="12" text-anchor="start">• Cortical Arrays</text>
  <text x="230" y="435" font-family="Arial" font-size="12" text-anchor="start">• Neural Lace</text>
  
  <text x="385" y="395" font-family="Arial" font-size="12" text-anchor="start">• Neural Decoding</text>
  <text x="385" y="415" font-family="Arial" font-size="12" text-anchor="start">• Brain State Modeling</text>
  <text x="385" y="435" font-family="Arial" font-size="12" text-anchor="start">• Thought Translation</text>
  
  <text x="560" y="395" font-family="Arial" font-size="12" text-anchor="start">• Thought-Based Control</text>
  <text x="560" y="415" font-family="Arial" font-size="12" text-anchor="start">• Neural Integration</text>
  <text x="560" y="435" font-family="Arial" font-size="12" text-anchor="start">• Ultra-High Bandwidth</text>
  
  <!-- Level Indicators -->
  <polygon points="75,200 90,200 90,230 75,230 65,215" fill="#0066cc" fill-opacity="0.3"/>
  <text x="50" y="215" font-family="Arial" font-size="12" text-anchor="end">Level 1</text>
  
  <polygon points="75,270 90,270 90,300 75,300 65,285" fill="#0066cc" fill-opacity="0.5"/>
  <text x="50" y="285" font-family="Arial" font-size="12" text-anchor="end">Level 2</text>
  
  <polygon points="75,340 90,340 90,370 75,370 65,355" fill="#cc0000" fill-opacity="0.5"/>
  <text x="50" y="355" font-family="Arial" font-size="12" text-anchor="end">Level 3</text>
  
  <polygon points="75,410 90,410 90,440 75,440 65,425" fill="#cc0000" fill-opacity="0.7"/>
  <text x="50" y="425" font-family="Arial" font-size="12" text-anchor="end">Level 4</text>
  
  <!-- Arrow showing progression -->
  <line x1="40" y1="215" x2="40" y2="425" stroke="#9966cc" stroke-width="2"/>
  <polygon points="35,415 40,435 45,415" fill="#9966cc"/>
  <text x="25" y="320" font-family="Arial" font-size="14" font-weight="bold" text-anchor="middle" transform="rotate(270 25,320)">Increasing Integration</text>
  
  <!-- Additional Information -->
  <rect x="100" y="490" width="600" height="60" rx="10" ry="10" fill="#f9f9f9" stroke="#9966cc" stroke-width="2"/>
  <text x="400" y="510" font-family="Arial" font-size="14" font-weight="bold" text-anchor="middle">Ethical Considerations</text>
  <text x="230" y="530" font-family="Arial" font-size="12" text-anchor="middle">• Privacy Concerns</text>
  <text x="400" y="530" font-family="Arial" font-size="12" text-anchor="middle">• Data Security</text>
  <text x="570" y="530" font-family="Arial" font-size="12" text-anchor="middle">• Agency and Autonomy</text>
  <text x="230" y="545" font-family="Arial" font-size="12" text-anchor="middle">• Mental Health Impacts</text>
  <text x="400" y="545" font-family="Arial" font-size="12" text-anchor="middle">• Identity Questions</text>
  <text x="570" y="545" font-family="Arial" font-size="12" text-anchor="middle">• Regulatory Frameworks</text>
  
  <!-- Legend -->
  <rect x="620" y="90" width="160" height="40" fill="#f9f9f9" stroke="#000000" stroke-width="1"/>
  <rect x="630" y="100" width="10" height="10" fill="#ccccff" stroke="#0066cc" stroke-width="1"/>
  <text x="650" y="110" font-family="Arial" font-size="12" text-anchor="start">Computational Interfaces</text>
  <rect x="630" y="120" width="10" height="10" fill="#ffcccc" stroke="#cc0000" stroke-width="1"/>
  <text x="650" y="130" font-family="Arial" font-size="12" text-anchor="start">Neural Interfaces</text>
  
  <!-- Figure Number and Caption -->
  <text x="400" y="580" font-family="Arial" font-size="12" text-anchor="middle">Figure 17.3: The spectrum of human-AI interaction methods from traditional to neural interfaces</text>
</svg>