<?xml version="1.0" encoding="UTF-8" standalone="no"?>
<svg width="800" height="600" xmlns="http://www.w3.org/2000/svg">
  <!-- Background -->
  <rect width="800" height="600" fill="#f9f9f9"/>
  
  <!-- Title -->
  <text x="400" y="40" font-family="Arial" font-size="24" font-weight="bold" text-anchor="middle">Neural Decoding Methods</text>
  <text x="400" y="70" font-family="Arial" font-size="16" text-anchor="middle">Common Algorithms for Interpreting Brain Signals</text>
  
  <!-- Central Diagram -->
  <ellipse cx="400" cy="250" rx="200" ry="140" fill="#ffcccc" fill-opacity="0.2" stroke="#cc0000" stroke-width="2"/>
  <text x="400" y="250" font-family="Arial" font-size="18" font-weight="bold" text-anchor="middle" fill="#cc0000">Neural Activity</text>
  
  <!-- Neural Signals (Input) -->
  <path d="M 250 180 C 260 170, 270 190, 280 180" stroke="#cc0000" stroke-width="2" fill="none"/>
  <path d="M 300 180 C 310 170, 320 200, 330 180" stroke="#cc0000" stroke-width="2" fill="none"/>
  <path d="M 350 180 C 360 170, 370 190, 380 180" stroke="#cc0000" stroke-width="2" fill="none"/>
  <path d="M 400 180 C 410 160, 420 200, 430 180" stroke="#cc0000" stroke-width="2" fill="none"/>
  <path d="M 450 180 C 460 170, 470 190, 480 180" stroke="#cc0000" stroke-width="2" fill="none"/>
  <path d="M 500 180 C 510 170, 520 200, 530 180" stroke="#cc0000" stroke-width="2" fill="none"/>
  
  <!-- Feature Extraction Methods (around the neural activity) -->
  <!-- Method 1: Linear Methods -->
  <rect x="200" y="340" width="120" height="80" rx="10" ry="10" fill="#ccccff" fill-opacity="0.7" stroke="#0066cc" stroke-width="2"/>
  <text x="260" y="365" font-family="Arial" font-size="14" font-weight="bold" text-anchor="middle">Linear Methods</text>
  <text x="260" y="385" font-family="Arial" font-size="12" text-anchor="middle">• LDA</text>
  <text x="260" y="405" font-family="Arial" font-size="12" text-anchor="middle">• SVM (linear)</text>
  <line x1="290" y1="340" x2="350" y2="290" stroke="#9966cc" stroke-width="2" stroke-dasharray="5,5"/>
  
  <!-- Method 2: Nonlinear Methods -->
  <rect x="340" y="340" width="120" height="80" rx="10" ry="10" fill="#ccccff" fill-opacity="0.7" stroke="#0066cc" stroke-width="2"/>
  <text x="400" y="365" font-family="Arial" font-size="14" font-weight="bold" text-anchor="middle">Nonlinear Methods</text>
  <text x="400" y="385" font-family="Arial" font-size="12" text-anchor="middle">• Random Forest</text>
  <text x="400" y="405" font-family="Arial" font-size="12" text-anchor="middle">• SVM (kernel)</text>
  <line x1="400" y1="340" x2="400" y2="290" stroke="#9966cc" stroke-width="2" stroke-dasharray="5,5"/>
  
  <!-- Method 3: Deep Learning -->
  <rect x="480" y="340" width="120" height="80" rx="10" ry="10" fill="#ccccff" fill-opacity="0.7" stroke="#0066cc" stroke-width="2"/>
  <text x="540" y="365" font-family="Arial" font-size="14" font-weight="bold" text-anchor="middle">Deep Learning</text>
  <text x="540" y="385" font-family="Arial" font-size="12" text-anchor="middle">• CNNs</text>
  <text x="540" y="405" font-family="Arial" font-size="12" text-anchor="middle">• RNNs/LSTMs</text>
  <line x1="510" y1="340" x2="450" y2="290" stroke="#9966cc" stroke-width="2" stroke-dasharray="5,5"/>
  
  <!-- Feature Preprocessing (left) -->
  <rect x="50" y="230" width="120" height="80" rx="10" ry="10" fill="#9966cc" fill-opacity="0.7" stroke="#9966cc" stroke-width="2"/>
  <text x="110" y="255" font-family="Arial" font-size="14" font-weight="bold" text-anchor="middle">Preprocessing</text>
  <text x="110" y="275" font-family="Arial" font-size="12" text-anchor="middle">• Filtering</text>
  <text x="110" y="295" font-family="Arial" font-size="12" text-anchor="middle">• Artifact Removal</text>
  <line x1="170" y1="260" x2="200" y2="250" stroke="#9966cc" stroke-width="2"/>
  <polygon points="195,246 205,250 195,254" fill="#9966cc"/>
  
  <!-- Output Interfaces (right) -->
  <rect x="630" y="230" width="120" height="80" rx="10" ry="10" fill="#9966cc" fill-opacity="0.7" stroke="#9966cc" stroke-width="2"/>
  <text x="690" y="255" font-family="Arial" font-size="14" font-weight="bold" text-anchor="middle">Outputs</text>
  <text x="690" y="275" font-family="Arial" font-size="12" text-anchor="middle">• Movement Control</text>
  <text x="690" y="295" font-family="Arial" font-size="12" text-anchor="middle">• Communication</text>
  <line x1="600" y1="250" x2="630" y2="260" stroke="#9966cc" stroke-width="2"/>
  <polygon points="625,256 635,260 625,264" fill="#9966cc"/>
  
  <!-- Feature Types Box -->
  <rect x="100" y="450" width="600" height="70" rx="10" ry="10" fill="#f9f9f9" stroke="#cc0000" stroke-width="2"/>
  <text x="400" y="470" font-family="Arial" font-size="14" font-weight="bold" text-anchor="middle">Common Neural Features for Decoding</text>
  <line x1="400" y1="480" x2="400" y2="480" stroke="#000000" stroke-width="1"/>
  
  <text x="200" y="495" font-family="Arial" font-size="12" text-anchor="middle">• Power Spectral Density</text>
  <text x="350" y="495" font-family="Arial" font-size="12" text-anchor="middle">• Band Power Features</text>
  <text x="500" y="495" font-family="Arial" font-size="12" text-anchor="middle">• Time-Frequency Features</text>
  <text x="650" y="495" font-family="Arial" font-size="12" text-anchor="middle">• Connectivity Metrics</text>
  
  <text x="200" y="515" font-family="Arial" font-size="12" text-anchor="middle">• Firing Rates</text>
  <text x="350" y="515" font-family="Arial" font-size="12" text-anchor="middle">• Spike Timing</text>
  <text x="500" y="515" font-family="Arial" font-size="12" text-anchor="middle">• Population Vectors</text>
  <text x="650" y="515" font-family="Arial" font-size="12" text-anchor="middle">• Common Spatial Patterns</text>
  
  <!-- Performance Metrics -->
  <rect x="250" y="120" width="300" height="60" rx="10" ry="10" fill="#f9f9f9" stroke="#0066cc" stroke-width="2"/>
  <text x="400" y="140" font-family="Arial" font-size="14" font-weight="bold" text-anchor="middle">Performance Metrics</text>
  <text x="320" y="160" font-family="Arial" font-size="12" text-anchor="middle">• Accuracy/F1-score</text>
  <text x="480" y="160" font-family="Arial" font-size="12" text-anchor="middle">• Information Transfer Rate</text>
  <text x="320" y="175" font-family="Arial" font-size="12" text-anchor="middle">• Decoding Speed</text>
  <text x="480" y="175" font-family="Arial" font-size="12" text-anchor="middle">• Bitrate</text>
  
  <!-- Legend -->
  <rect x="600" y="530" width="180" height="60" fill="#f9f9f9" stroke="#000000" stroke-width="1"/>
  <circle cx="615" y="545" r="5" fill="#cc0000"/>
  <text x="630" y="550" font-family="Arial" font-size="12" text-anchor="start">Neural Components</text>
  <circle cx="615" y="565" r="5" fill="#0066cc"/>
  <text x="630" y="570" font-family="Arial" font-size="12" text-anchor="start">Algorithmic Methods</text>
  <circle cx="615" y="585" r="5" fill="#9966cc"/>
  <text x="630" y="590" font-family="Arial" font-size="12" text-anchor="start">Interface Components</text>
  
  <!-- Figure Number and Caption -->
  <text x="400" y="580" font-family="Arial" font-size="12" text-anchor="middle">Figure 17.2: Overview of neural decoding methods across different algorithmic approaches</text>
</svg>