<?xml version="1.0" encoding="UTF-8" standalone="no"?>
<svg width="800" height="500" xmlns="http://www.w3.org/2000/svg">
  <style>
    .title { font: bold 24px Arial; fill: #333; text-anchor: middle; }
    .subtitle { font: 18px Arial; fill: #666; text-anchor: middle; }
    .box-title { font: bold 16px Arial; fill: #333; text-anchor: middle; }
    .label { font: 14px Arial; fill: #333; text-anchor: middle; }
    .sublabel { font: 12px Arial; fill: #666; text-anchor: middle; }
    .code { font: 12px Courier; fill: #333; }
    .key { fill: #ffcccc; stroke: #993333; stroke-width: 1.5; }
    .query { fill: #ccffcc; stroke: #339933; stroke-width: 1.5; }
    .value { fill: #cce6ff; stroke: #3366cc; stroke-width: 1.5; }
    .attention { fill: #ffffcc; stroke: #999; stroke-width: 1.5; }
    .matrix { fill: #f5f5f5; stroke: #666; stroke-width: 1; }
    .strong-attention { fill: #ffcc99; stroke: #ff6600; stroke-width: 1.5; }
    .weak-attention { fill: #f5f5f5; stroke: #999; stroke-width: 0.5; }
    .arrow { stroke: #666; stroke-width: 1.5; fill: none; marker-end: url(#arrowhead); }
    .dotted { stroke: #999; stroke-width: 1; stroke-dasharray: 3,3; }
    .heading { font: bold 14px Arial; fill: #333; text-anchor: middle; }
  </style>
  
  <defs>
    <marker id="arrowhead" markerWidth="10" markerHeight="7" refX="9" refY="3.5" orient="auto">
      <polygon points="0 0, 10 3.5, 0 7" fill="#666" />
    </marker>
  </defs>
  
  <!-- Title -->
  <text x="400" y="30" class="title">Attention Mechanisms</text>
  <text x="400" y="60" class="subtitle">Query, Key, Value Architecture</text>
  
  <!-- Left side: Self-Attention -->
  <g transform="translate(50, 90)">
    <rect x="0" y="0" width="320" height="320" fill="#f9f9f9" stroke="#ccc" stroke-width="1" rx="5" ry="5" />
    <text x="160" y="25" class="box-title">Self-Attention</text>
    
    <!-- Input sequence tokens -->
    <rect x="30" y="50" width="50" height="25" fill="#f5f5f5" stroke="#666" stroke-width="1" />
    <text x="55" y="65" class="label">the</text>
    
    <rect x="100" y="50" width="50" height="25" fill="#f5f5f5" stroke="#666" stroke-width="1" />
    <text x="125" y="65" class="label">cat</text>
    
    <rect x="170" y="50" width="50" height="25" fill="#f5f5f5" stroke="#666" stroke-width="1" />
    <text x="195" y="65" class="label">sat</text>
    
    <rect x="240" y="50" width="50" height="25" fill="#f5f5f5" stroke="#666" stroke-width="1" />
    <text x="265" y="65" class="label">down</text>
    
    <!-- Projections to Q, K, V -->
    <text x="20" y="105" class="heading" text-anchor="start">Linear Projections:</text>
    
    <rect x="30" y="120" width="50" height="25" class="query" />
    <text x="55" y="135" class="label">Q₁</text>
    
    <rect x="100" y="120" width="50" height="25" class="query" />
    <text x="125" y="135" class="label">Q₂</text>
    
    <rect x="170" y="120" width="50" height="25" class="query" />
    <text x="195" y="135" class="label">Q₃</text>
    
    <rect x="240" y="120" width="50" height="25" class="query" />
    <text x="265" y="135" class="label">Q₄</text>
    
    <rect x="30" y="160" width="50" height="25" class="key" />
    <text x="55" y="175" class="label">K₁</text>
    
    <rect x="100" y="160" width="50" height="25" class="key" />
    <text x="125" y="175" class="label">K₂</text>
    
    <rect x="170" y="160" width="50" height="25" class="key" />
    <text x="195" y="175" class="label">K₃</text>
    
    <rect x="240" y="160" width="50" height="25" class="key" />
    <text x="265" y="175" class="label">K₄</text>
    
    <rect x="30" y="200" width="50" height="25" class="value" />
    <text x="55" y="215" class="label">V₁</text>
    
    <rect x="100" y="200" width="50" height="25" class="value" />
    <text x="125" y="215" class="label">V₂</text>
    
    <rect x="170" y="200" width="50" height="25" class="value" />
    <text x="195" y="215" class="label">V₃</text>
    
    <rect x="240" y="200" width="50" height="25" class="value" />
    <text x="265" y="215" class="label">V₄</text>
    
    <!-- Attention computation -->
    <text x="20" y="245" class="heading" text-anchor="start">Attention Weights:</text>
    <rect x="60" y="250" width="200" height="25" class="attention" />
    <text x="160" y="265" class="label">softmax(Q·K^T / √d_k)</text>
    
    <!-- Output -->
    <text x="20" y="295" class="heading" text-anchor="start">Output:</text>
    <rect x="30" y="300" width="50" height="25" fill="#f5f5f5" stroke="#666" stroke-width="1" />
    <text x="55" y="315" class="label">O₁</text>
    
    <rect x="100" y="300" width="50" height="25" fill="#f5f5f5" stroke="#666" stroke-width="1" />
    <text x="125" y="315" class="label">O₂</text>
    
    <rect x="170" y="300" width="50" height="25" fill="#f5f5f5" stroke="#666" stroke-width="1" />
    <text x="195" y="315" class="label">O₃</text>
    
    <rect x="240" y="300" width="50" height="25" fill="#f5f5f5" stroke="#666" stroke-width="1" />
    <text x="265" y="315" class="label">O₄</text>
    
    <!-- Arrows -->
    <line x1="55" y1="75" x2="55" y2="120" class="arrow" />
    <line x1="125" y1="75" x2="125" y2="120" class="arrow" />
    <line x1="195" y1="75" x2="195" y2="120" class="arrow" />
    <line x1="265" y1="75" x2="265" y2="120" class="arrow" />
    
    <line x1="55" y1="75" x2="55" y2="160" class="dotted" />
    <line x1="125" y1="75" x2="125" y2="160" class="dotted" />
    <line x1="195" y1="75" x2="195" y2="160" class="dotted" />
    <line x1="265" y1="75" x2="265" y2="160" class="dotted" />
    
    <line x1="55" y1="75" x2="55" y2="200" class="dotted" />
    <line x1="125" y1="75" x2="125" y2="200" class="dotted" />
    <line x1="195" y1="75" x2="195" y2="200" class="dotted" />
    <line x1="265" y1="75" x2="265" y2="200" class="dotted" />
    
    <path d="M 55,225 L 55,250 C 55,250 160,240 160,250" class="dotted" />
    <path d="M 125,225 L 125,240 C 125,240 160,240 160,250" class="dotted" />
    <path d="M 195,225 L 195,240 C 195,240 160,240 160,250" class="dotted" />
    <path d="M 265,225 L 265,240 C 265,240 160,240 160,250" class="dotted" />
    
    <line x1="160" y1="275" x2="160" y2="285" class="arrow" />
    
    <path d="M 55,225 L 55,285 C 55,290 55,300 55,300" class="dotted" />
    <path d="M 125,225 L 125,285 C 125,290 125,300 125,300" class="dotted" />
    <path d="M 195,225 L 195,285 C 195,290 195,300 195,300" class="dotted" />
    <path d="M 265,225 L 265,285 C 265,290 265,300 265,300" class="dotted" />
  </g>
  
  <!-- Right side: Attention visualization -->
  <g transform="translate(430, 90)">
    <rect x="0" y="0" width="320" height="320" fill="#f9f9f9" stroke="#ccc" stroke-width="1" rx="5" ry="5" />
    <text x="160" y="25" class="box-title">Attention Visualization</text>
    
    <!-- Attention matrix -->
    <text x="160" y="55" class="label">Attention Weights (Q₂·K^T)</text>
    <rect x="60" y="70" width="200" height="200" class="matrix" />
    
    <!-- Tokens -->
    <text x="35" y="110" class="label" text-anchor="end">the</text>
    <text x="35" y="150" class="label" text-anchor="end">cat</text>
    <text x="35" y="190" class="label" text-anchor="end">sat</text>
    <text x="35" y="230" class="label" text-anchor="end">down</text>
    
    <text x="90" y="60" class="label" text-anchor="middle">the</text>
    <text x="130" y="60" class="label" text-anchor="middle">cat</text>
    <text x="170" y="60" class="label" text-anchor="middle">sat</text>
    <text x="210" y="60" class="label" text-anchor="middle">down</text>
    
    <!-- Attention weights -->
    <rect x="70" y="90" width="40" height="40" class="weak-attention" opacity="0.3" />
    <rect x="110" y="90" width="40" height="40" class="weak-attention" opacity="0.3" />
    <rect x="150" y="90" width="40" height="40" class="weak-attention" opacity="0.3" />
    <rect x="190" y="90" width="40" height="40" class="weak-attention" opacity="0.3" />
    
    <rect x="70" y="130" width="40" height="40" class="weak-attention" opacity="0.3" />
    <rect x="110" y="130" width="40" height="40" class="strong-attention" />
    <rect x="150" y="130" width="40" height="40" class="weak-attention" opacity="0.7" />
    <rect x="190" y="130" width="40" height="40" class="weak-attention" opacity="0.3" />
    
    <rect x="70" y="170" width="40" height="40" class="weak-attention" opacity="0.3" />
    <rect x="110" y="170" width="40" height="40" class="weak-attention" opacity="0.7" />
    <rect x="150" y="170" width="40" height="40" class="strong-attention" />
    <rect x="190" y="170" width="40" height="40" class="weak-attention" opacity="0.5" />
    
    <rect x="70" y="210" width="40" height="40" class="weak-attention" opacity="0.2" />
    <rect x="110" y="210" width="40" height="40" class="weak-attention" opacity="0.3" />
    <rect x="150" y="210" width="40" height="40" class="weak-attention" opacity="0.4" />
    <rect x="190" y="210" width="40" height="40" class="strong-attention" />
    
    <!-- Example explanation -->
    <text x="160" y="290" class="label" text-anchor="middle">"cat" attends most strongly to itself</text>
    <text x="160" y="310" class="label" text-anchor="middle">and related words like "sat"</text>
  </g>
  
  <!-- Bottom section: Multi-head attention -->
  <g transform="translate(50, 430)">
    <rect x="0" y="0" width="700" height="50" fill="#f5f5f5" stroke="#ccc" stroke-width="1" rx="5" ry="5" />
    <text x="350" y="20" class="box-title">Multi-Head Attention</text>
    <text x="350" y="40" class="label">Performs attention multiple times in parallel with different projections, then concatenates results</text>
  </g>
</svg>