<?xml version="1.0" encoding="UTF-8" standalone="no"?>
<svg width="800" height="500" viewBox="0 0 800 500" xmlns="http://www.w3.org/2000/svg">
  <title>Entropy Illustration</title>
  
  <!-- Title -->
  <text x="400" y="40" font-family="Arial" font-size="24" text-anchor="middle" font-weight="bold">Information Entropy</text>
  <text x="400" y="70" font-family="Arial" font-size="16" text-anchor="middle">Measuring Uncertainty in Probability Distributions</text>
  
  <!-- Main Section - Binary Entropy Function -->
  <g id="binary-entropy">
    <!-- Axes -->
    <line x1="100" y1="350" x2="700" y2="350" stroke="#000000" stroke-width="2"/>
    <line x1="100" y1="350" x2="100" y2="100" stroke="#000000" stroke-width="2"/>
    
    <!-- X axis ticks and labels -->
    <line x1="100" y1="350" x2="100" y2="355" stroke="#000000" stroke-width="2"/>
    <text x="100" y="370" font-family="Arial" font-size="12" text-anchor="middle">0.0</text>
    
    <line x1="220" y1="350" x2="220" y2="355" stroke="#000000" stroke-width="2"/>
    <text x="220" y="370" font-family="Arial" font-size="12" text-anchor="middle">0.2</text>
    
    <line x1="340" y1="350" x2="340" y2="355" stroke="#000000" stroke-width="2"/>
    <text x="340" y="370" font-family="Arial" font-size="12" text-anchor="middle">0.4</text>
    
    <line x1="460" y1="350" x2="460" y2="355" stroke="#000000" stroke-width="2"/>
    <text x="460" y="370" font-family="Arial" font-size="12" text-anchor="middle">0.6</text>
    
    <line x1="580" y1="350" x2="580" y2="355" stroke="#000000" stroke-width="2"/>
    <text x="580" y="370" font-family="Arial" font-size="12" text-anchor="middle">0.8</text>
    
    <line x1="700" y1="350" x2="700" y2="355" stroke="#000000" stroke-width="2"/>
    <text x="700" y="370" font-family="Arial" font-size="12" text-anchor="middle">1.0</text>
    
    <text x="400" y="395" font-family="Arial" font-size="14" text-anchor="middle">Probability (p)</text>
    
    <!-- Y axis ticks and labels -->
    <line x1="95" y1="350" x2="100" y2="350" stroke="#000000" stroke-width="2"/>
    <text x="85" y="355" font-family="Arial" font-size="12" text-anchor="end">0.0</text>
    
    <line x1="95" y1="275" x2="100" y2="275" stroke="#000000" stroke-width="2"/>
    <text x="85" y="280" font-family="Arial" font-size="12" text-anchor="end">0.25</text>
    
    <line x1="95" y1="200" x2="100" y2="200" stroke="#000000" stroke-width="2"/>
    <text x="85" y="205" font-family="Arial" font-size="12" text-anchor="end">0.5</text>
    
    <line x1="95" y1="125" x2="100" y2="125" stroke="#000000" stroke-width="2"/>
    <text x="85" y="130" font-family="Arial" font-size="12" text-anchor="end">0.75</text>
    
    <line x1="95" y1="100" x2="100" y2="100" stroke="#000000" stroke-width="2"/>
    <text x="85" y="105" font-family="Arial" font-size="12" text-anchor="end">1.0</text>
    
    <text x="50" y="225" font-family="Arial" font-size="14" text-anchor="middle" transform="rotate(-90, 50, 225)">Entropy H(p) (bits)</text>
    
    <!-- Binary entropy function curve -->
    <path d="M 100,350 
             Q 160,270 220,220 
             Q 280,180 340,155 
             Q 400,145 460,155 
             Q 520,180 580,220 
             Q 640,270 700,350"
          fill="none" stroke="#0066cc" stroke-width="3"/>
    
    <!-- Highlight maximum at p=0.5 -->
    <circle cx="400" cy="100" r="6" fill="#ff3333" stroke="#990000" stroke-width="1"/>
    <line x1="400" y1="100" x2="400" y2="350" stroke="#ff3333" stroke-width="1" stroke-dasharray="5,3"/>
    <line x1="100" y1="100" x2="400" y2="100" stroke="#ff3333" stroke-width="1" stroke-dasharray="5,3"/>
    <text x="420" y="115" font-family="Arial" font-size="12" text-anchor="start" fill="#990000">Maximum entropy (1 bit)</text>
    <text x="420" y="130" font-family="Arial" font-size="12" text-anchor="start" fill="#990000">at p = 0.5</text>
    
    <!-- Highlight minimum at p=0 and p=1 -->
    <circle cx="100" cy="350" r="6" fill="#009900" stroke="#006600" stroke-width="1"/>
    <text x="110" y="340" font-family="Arial" font-size="12" text-anchor="start" fill="#006600">Minimum entropy (0 bits)</text>
    <text x="110" y="355" font-family="Arial" font-size="12" text-anchor="start" fill="#006600">at p = 0 or p = 1</text>
    
    <circle cx="700" cy="350" r="6" fill="#009900" stroke="#006600" stroke-width="1"/>
    
    <!-- Title for this section -->
    <text x="400" y="425" font-family="Arial" font-size="16" text-anchor="middle" font-weight="bold">Binary Entropy Function: H(p) = -p log₂(p) - (1-p) log₂(1-p)</text>
  </g>
  
  <!-- Example distributions on the right -->
  <g id="examples">
    <!-- Low entropy example (biased coin) -->
    <rect x="150" y="450" width="150" height="30" fill="#f9f9f9" stroke="#666666" stroke-width="1"/>
    <rect x="150" y="450" width="135" height="30" fill="#ffcccc" stroke="none"/>
    <rect x="285" y="450" width="15" height="30" fill="#ccccff" stroke="none"/>
    <text x="225" y="470" font-family="Arial" font-size="12" text-anchor="middle">Low Entropy (Biased: 0.9, 0.1)</text>
    
    <!-- Medium entropy example -->
    <rect x="350" y="450" width="150" height="30" fill="#f9f9f9" stroke="#666666" stroke-width="1"/>
    <rect x="350" y="450" width="105" height="30" fill="#ffcccc" stroke="none"/>
    <rect x="455" y="450" width="45" height="30" fill="#ccccff" stroke="none"/>
    <text x="425" y="470" font-family="Arial" font-size="12" text-anchor="middle">Medium Entropy (0.7, 0.3)</text>
    
    <!-- High entropy example (fair coin) -->
    <rect x="550" y="450" width="150" height="30" fill="#f9f9f9" stroke="#666666" stroke-width="1"/>
    <rect x="550" y="450" width="75" height="30" fill="#ffcccc" stroke="none"/>
    <rect x="625" y="450" width="75" height="30" fill="#ccccff" stroke="none"/>
    <text x="625" y="470" font-family="Arial" font-size="12" text-anchor="middle">Maximum Entropy (0.5, 0.5)</text>
  </g>
</svg>