<?xml version="1.0" encoding="UTF-8" standalone="no"?>
<svg width="800" height="600" xmlns="http://www.w3.org/2000/svg" viewBox="0 0 800 600">
  <style>
    .layer-label { font: bold 16px Arial; fill: #333; text-anchor: middle; }
    .neuron-label { font: 12px Arial; fill: #555; text-anchor: middle; }
    .connection { stroke: #999; stroke-width: 1.5; }
    .strong-connection { stroke: #333; stroke-width: 2.5; }
    .neuron { fill: #f5f5f5; stroke: #333; stroke-width: 1.5; }
    .active-neuron { fill: #ffcc99; stroke: #ff6600; stroke-width: 2; }
    .input { fill: #e6f3ff; stroke: #3366cc; stroke-width: 1.5; }
    .output { fill: #e6ffe6; stroke: #339933; stroke-width: 1.5; }
    .title { font: bold 24px Arial; fill: #333; text-anchor: middle; }
    .subtitle { font: 18px Arial; fill: #666; text-anchor: middle; }
    .activation-arrow { stroke: #333; stroke-width: 1.5; fill: none; marker-end: url(#arrowhead); }
    .activation-label { font: 14px Arial; fill: #333; text-anchor: middle; }
    .activation-box { fill: #ffffcc; stroke: #999; stroke-width: 1; }
    .code { font: 12px Courier; fill: #333; }
  </style>
  
  <defs>
    <marker id="arrowhead" markerWidth="10" markerHeight="7" refX="9" refY="3.5" orient="auto">
      <polygon points="0 0, 10 3.5, 0 7" fill="#333" />
    </marker>
  </defs>
  
  <!-- Title -->
  <text x="400" y="40" class="title">Neural Network Architecture</text>
  <text x="400" y="70" class="subtitle">Multilayer Perceptron with Hidden Layers</text>
  
  <!-- Input Layer -->
  <g transform="translate(0, 0)">
    <circle cx="150" cy="200" r="25" class="input" />
    <circle cx="150" cy="300" r="25" class="input" />
    <circle cx="150" cy="400" r="25" class="input" />
    
    <text x="150" y="160" class="layer-label">Input Layer</text>
    <text x="150" cy="205" class="neuron-label">x₁</text>
    <text x="150" cy="305" class="neuron-label">x₂</text>
    <text x="150" cy="405" class="neuron-label">x₃</text>
  </g>
  
  <!-- Hidden Layer 1 -->
  <g transform="translate(0, 0)">
    <circle cx="300" cy="150" r="25" class="neuron" />
    <circle cx="300" cy="250" r="25" class="active-neuron" />
    <circle cx="300" cy="350" r="25" class="neuron" />
    <circle cx="300" cy="450" r="25" class="neuron" />
    
    <text x="300" y="110" class="layer-label">Hidden Layer 1</text>
    <text x="300" cy="155" class="neuron-label">h₁₁</text>
    <text x="300" cy="255" class="neuron-label">h₁₂</text>
    <text x="300" cy="355" class="neuron-label">h₁₃</text>
    <text x="300" cy="455" class="neuron-label">h₁₄</text>
  </g>
  
  <!-- Hidden Layer 2 -->
  <g transform="translate(0, 0)">
    <circle cx="450" cy="175" r="25" class="neuron" />
    <circle cx="450" cy="275" r="25" class="neuron" />
    <circle cx="450" cy="375" r="25" class="active-neuron" />
    
    <text x="450" y="110" class="layer-label">Hidden Layer 2</text>
    <text x="450" cy="180" class="neuron-label">h₂₁</text>
    <text x="450" cy="280" class="neuron-label">h₂₂</text>
    <text x="450" cy="380" class="neuron-label">h₂₃</text>
  </g>
  
  <!-- Output Layer -->
  <g transform="translate(0, 0)">
    <circle cx="600" cy="225" r="25" class="output" />
    <circle cx="600" cy="325" r="25" class="output" />
    
    <text x="600" y="160" class="layer-label">Output Layer</text>
    <text x="600" cy="230" class="neuron-label">y₁</text>
    <text x="600" cy="330" class="neuron-label">y₂</text>
  </g>
  
  <!-- Connections from Input to Hidden Layer 1 -->
  <!-- Connect each input to each neuron in hidden layer 1 -->
  <g transform="translate(0, 0)">
    <line x1="175" y1="200" x2="275" y2="150" class="connection" />
    <line x1="175" y1="200" x2="275" y2="250" class="strong-connection" />
    <line x1="175" y1="200" x2="275" y2="350" class="connection" />
    <line x1="175" y1="200" x2="275" y2="450" class="connection" />
    
    <line x1="175" y1="300" x2="275" y2="150" class="connection" />
    <line x1="175" y1="300" x2="275" y2="250" class="strong-connection" />
    <line x1="175" y1="300" x2="275" y2="350" class="connection" />
    <line x1="175" y1="300" x2="275" y2="450" class="connection" />
    
    <line x1="175" y1="400" x2="275" y2="150" class="connection" />
    <line x1="175" y1="400" x2="275" y2="250" class="strong-connection" />
    <line x1="175" y1="400" x2="275" y2="350" class="connection" />
    <line x1="175" y1="400" x2="275" y2="450" class="connection" />
  </g>
  
  <!-- Connections from Hidden Layer 1 to Hidden Layer 2 -->
  <g transform="translate(0, 0)">
    <line x1="325" y1="150" x2="425" y2="175" class="connection" />
    <line x1="325" y1="150" x2="425" y2="275" class="connection" />
    <line x1="325" y1="150" x2="425" y2="375" class="connection" />
    
    <line x1="325" y1="250" x2="425" y2="175" class="connection" />
    <line x1="325" y1="250" x2="425" y2="275" class="connection" />
    <line x1="325" y1="250" x2="425" y2="375" class="strong-connection" />
    
    <line x1="325" y1="350" x2="425" y2="175" class="connection" />
    <line x1="325" y1="350" x2="425" y2="275" class="connection" />
    <line x1="325" y1="350" x2="425" y2="375" class="connection" />
    
    <line x1="325" y1="450" x2="425" y2="175" class="connection" />
    <line x1="325" y1="450" x2="425" y2="275" class="connection" />
    <line x1="325" y1="450" x2="425" y2="375" class="connection" />
  </g>
  
  <!-- Connections from Hidden Layer 2 to Output -->
  <g transform="translate(0, 0)">
    <line x1="475" y1="175" x2="575" y2="225" class="connection" />
    <line x1="475" y1="175" x2="575" y2="325" class="connection" />
    
    <line x1="475" y1="275" x2="575" y2="225" class="connection" />
    <line x1="475" y1="275" x2="575" y2="325" class="connection" />
    
    <line x1="475" y1="375" x2="575" y2="225" class="connection" />
    <line x1="475" y1="375" x2="575" y2="325" class="strong-connection" />
  </g>
  
  <!-- Activation Functions -->
  <g transform="translate(0, 0)">
    <rect x="100" y="500" width="600" height="80" rx="10" ry="10" class="activation-box" />
    
    <!-- ReLU -->
    <path d="M 150 560 L 170 560 L 190 540" class="activation-arrow" />
    <text x="170" y="575" class="activation-label">ReLU</text>
    
    <!-- Sigmoid -->
    <path d="M 270 570 C 280 570 290 550 300 550 C 310 550 320 550 330 550" class="activation-arrow" />
    <text x="300" y="575" class="activation-label">Sigmoid</text>
    
    <!-- Tanh -->
    <path d="M 400 570 C 410 570 420 540 430 540 C 440 540 450 570 460 570" class="activation-arrow" />
    <text x="430" y="585" class="activation-label">Tanh</text>
    
    <!-- GELU -->
    <path d="M 520 560 C 530 560 535 550 540 550 C 545 550 550 570 560 550 C 570 530 580 550 590 550" class="activation-arrow" />
    <text x="560" y="575" class="activation-label">GELU</text>
    
    <text x="400" y="520" class="neuron-label">Common Activation Functions</text>
  </g>
  
  <!-- Forward Propagation Equation -->
  <g transform="translate(0, 0)">
    <text x="200" y="30" class="code">h = σ(Wx + b)</text>
  </g>
</svg>