<?xml version="1.0" encoding="UTF-8" standalone="no"?>
<svg width="800" height="600" xmlns="http://www.w3.org/2000/svg" viewBox="0 0 800 600">
  <style>
    .title { font: bold 24px Arial; fill: #333; text-anchor: middle; }
    .area-label { font: bold 16px Arial; fill: #333; text-anchor: middle; }
    .region-label { font: 14px Arial; fill: #333; text-anchor: middle; }
    .function-label { font: italic 12px Arial; fill: #666; text-anchor: middle; }
    .pathway-label { font: bold 12px Arial; fill: #333; text-anchor: middle; }
    .eye { fill: #f2f2f2; stroke: #333; stroke-width: 2; }
    .pupil { fill: #333; }
    .retina { fill: #ffcccc; stroke: #cc3333; stroke-width: 1.5; }
    .lgn { fill: #cce6ff; stroke: #3366cc; stroke-width: 1.5; }
    .v1 { fill: #ffffcc; stroke: #996600; stroke-width: 1.5; }
    .v2 { fill: #e6ffe6; stroke: #339933; stroke-width: 1.5; }
    .v4 { fill: #ffe6cc; stroke: #cc6633; stroke-width: 1.5; }
    .mt { fill: #f2e6ff; stroke: #9933cc; stroke-width: 1.5; }
    .it { fill: #ffccff; stroke: #cc33cc; stroke-width: 1.5; }
    .pp { fill: #e6ffff; stroke: #339999; stroke-width: 1.5; }
    .ventral { fill: #ffb3b3; stroke: #ff6666; stroke-width: 2; opacity: 0.2; }
    .dorsal { fill: #b3d9ff; stroke: #3399ff; stroke-width: 2; opacity: 0.2; }
    .pathway { stroke: #666; stroke-width: 2; fill: none; marker-end: url(#arrowhead); }
    .ventral-pathway { stroke: #cc3333; stroke-width: 2.5; fill: none; marker-end: url(#v-arrowhead); }
    .dorsal-pathway { stroke: #3366cc; stroke-width: 2.5; fill: none; marker-end: url(#d-arrowhead); }
    .feedback { stroke: #666; stroke-width: 1.5; stroke-dasharray: 5,3; fill: none; marker-end: url(#arrowhead); }
    .connection { stroke: #999; stroke-width: 1; fill: none; }
    .brain { fill: #f9f9f9; stroke: #ccc; stroke-width: 1; opacity: 0.4; }
  </style>
  
  <defs>
    <marker id="arrowhead" markerWidth="10" markerHeight="7" refX="9" refY="3.5" orient="auto">
      <polygon points="0 0, 10 3.5, 0 7" fill="#666" />
    </marker>
    <marker id="v-arrowhead" markerWidth="10" markerHeight="7" refX="9" refY="3.5" orient="auto">
      <polygon points="0 0, 10 3.5, 0 7" fill="#cc3333" />
    </marker>
    <marker id="d-arrowhead" markerWidth="10" markerHeight="7" refX="9" refY="3.5" orient="auto">
      <polygon points="0 0, 10 3.5, 0 7" fill="#3366cc" />
    </marker>
  </defs>
  
  <!-- Brain background -->
  <ellipse cx="450" cy="300" rx="300" ry="250" class="brain" />
  
  <!-- Visual pathways -->
  <!-- Ventral stream (What) -->
  <path d="M 300,280 C 350,280 400,250 450,220 C 500,190 550,170 600,150" class="ventral" />
  
  <!-- Dorsal stream (Where) -->
  <path d="M 300,280 C 350,280 400,320 450,340 C 500,360 550,380 600,400" class="dorsal" />
  
  <!-- Eye -->
  <circle cx="100" cy="300" r="60" class="eye" />
  <circle cx="100" cy="300" r="20" class="pupil" />
  <path d="M 160,300 L 170,300" class="pathway" />
  
  <!-- Retina -->
  <rect x="170" y="270" width="50" height="60" rx="5" ry="5" class="retina" />
  <text x="195" y="305" class="region-label">Retina</text>
  <text x="195" y="320" class="function-label">Center-surround</text>
  
  <!-- Optic chiasm and pathway to LGN -->
  <path d="M 220,300 C 240,300 240,300 260,300" class="pathway" />
  
  <!-- LGN -->
  <rect x="260" y="270" width="40" height="60" rx="5" ry="5" class="lgn" />
  <text x="280" y="305" class="region-label">LGN</text>
  <text x="280" y="320" class="function-label">P, M, K cells</text>
  
  <!-- Primary Visual Cortex (V1) -->
  <rect x="330" y="250" width="60" height="100" rx="5" ry="5" class="v1" />
  <text x="360" y="305" class="region-label">V1</text>
  <text x="360" y="320" class="function-label">Orientation</text>
  
  <!-- V2 -->
  <rect x="420" y="230" width="60" height="70" rx="5" ry="5" class="v2" />
  <text x="450" y="270" class="region-label">V2</text>
  <text x="450" y="285" class="function-label">Contours</text>
  
  <rect x="420" y="320" width="60" height="70" rx="5" ry="5" class="v2" />
  <text x="450" y="360" class="region-label">V3</text>
  <text x="450" y="375" class="function-label">3D Form</text>
  
  <!-- V4 -->
  <rect x="510" y="200" width="60" height="70" rx="5" ry="5" class="v4" />
  <text x="540" y="240" class="region-label">V4</text>
  <text x="540" y="255" class="function-label">Shape, Color</text>
  
  <!-- MT/V5 -->
  <rect x="510" y="350" width="60" height="70" rx="5" ry="5" class="mt" />
  <text x="540" y="390" class="region-label">MT/V5</text>
  <text x="540" y="405" class="function-label">Motion</text>
  
  <!-- IT -->
  <rect x="600" y="180" width="70" height="70" rx="5" ry="5" class="it" />
  <text x="635" y="220" class="region-label">IT Cortex</text>
  <text x="635" y="235" class="function-label">Objects, Faces</text>
  
  <!-- Posterior Parietal -->
  <rect x="600" y="350" width="70" height="70" rx="5" ry="5" class="pp" />
  <text x="635" y="390" class="region-label">Parietal</text>
  <text x="635" y="405" class="function-label">Space, Action</text>
  
  <!-- Pathway Connections -->
  <path d="M 300,300 L 330,300" class="pathway" />
  <path d="M 390,300 L 420,265" class="pathway" />
  <path d="M 390,300 L 420,355" class="pathway" />
  <path d="M 480,265 L 510,235" class="ventral-pathway" />
  <path d="M 480,355 L 510,385" class="dorsal-pathway" />
  <path d="M 570,235 L 600,215" class="ventral-pathway" />
  <path d="M 570,385 L 600,385" class="dorsal-pathway" />
  
  <!-- Feedback connections -->
  <path d="M 420,280 C 400,290 380,290 390,315" class="feedback" />
  <path d="M 510,250 C 490,260 470,270 480,280" class="feedback" />
  <path d="M 600,200 C 580,210 560,220 570,230" class="feedback" />
  
  <!-- Stream labels -->
  <text x="550" y="170" class="pathway-label" fill="#cc3333">Ventral Stream (&quot;What&quot;)</text>
  <text x="550" y="450" class="pathway-label" fill="#3366cc">Dorsal Stream (&quot;Where&quot;)</text>
  
  <!-- Title -->
  <text x="400" y="50" class="title">Visual Processing Pathway</text>
</svg>