<?xml version="1.0" encoding="UTF-8" standalone="no"?>
<svg width="800" height="500" xmlns="http://www.w3.org/2000/svg">
  <style>
    .title { font: bold 24px Arial; fill: #333; text-anchor: middle; }
    .subtitle { font: 18px Arial; fill: #666; text-anchor: middle; }
    .box-title { font: bold 16px Arial; fill: #333; text-anchor: middle; }
    .label { font: 14px Arial; fill: #333; text-anchor: middle; }
    .sublabel { font: 12px Arial; fill: #666; text-anchor: middle; }
    .code { font: 12px Courier; fill: #333; }
    .neuron { fill: #f5f5f5; stroke: #333; stroke-width: 1.5; }
    .lstm-neuron { fill: #e6f3ff; stroke: #3366cc; stroke-width: 1.5; }
    .gru-neuron { fill: #e6ffe6; stroke: #339933; stroke-width: 1.5; }
    .connection { stroke: #999; stroke-width: 1.5; }
    .recurrent { stroke: #d62728; stroke-width: 2; fill: none; }
    .cell-state { stroke: #9467bd; stroke-width: 2; fill: none; }
    .input { fill: #ffffcc; stroke: #999; stroke-width: 1.5; }
    .output { fill: #ccffcc; stroke: #999; stroke-width: 1.5; }
    .gate { fill: #ffcccc; stroke: #993333; stroke-width: 1.5; }
    .arrow { stroke: #666; stroke-width: 1.5; fill: none; marker-end: url(#arrowhead); }
  </style>
  
  <defs>
    <marker id="arrowhead" markerWidth="10" markerHeight="7" refX="9" refY="3.5" orient="auto">
      <polygon points="0 0, 10 3.5, 0 7" fill="#666" />
    </marker>
  </defs>
  
  <!-- Title -->
  <text x="400" y="30" class="title">Recurrent Neural Network Architectures</text>
  <text x="400" y="60" class="subtitle">From Simple RNNs to LSTMs and GRUs</text>
  
  <!-- Simple RNN -->
  <g transform="translate(50, 130)">
    <rect x="0" y="0" width="200" height="220" fill="#f9f9f9" stroke="#ccc" stroke-width="1" rx="5" ry="5" />
    <text x="100" y="25" class="box-title">Simple RNN</text>
    
    <!-- RNN cell unfolded over time -->
    <circle cx="50" cy="80" r="20" class="neuron" />
    <text x="50" y="80" class="label">h₀</text>
    
    <circle cx="120" cy="80" r="20" class="neuron" />
    <text x="120" y="80" class="label">h₁</text>
    
    <circle cx="190" cy="80" r="20" class="neuron" />
    <text x="190" y="80" class="label">h₂</text>
    
    <!-- Inputs -->
    <rect x="35" y="130" width="30" height="20" class="input" />
    <text x="50" y="145" class="sublabel">x₀</text>
    
    <rect x="105" y="130" width="30" height="20" class="input" />
    <text x="120" y="145" class="sublabel">x₁</text>
    
    <rect x="175" y="130" width="30" height="20" class="input" />
    <text x="190" y="145" class="sublabel">x₂</text>
    
    <!-- Outputs -->
    <rect x="35" y="30" width="30" height="20" class="output" />
    <text x="50" y="45" class="sublabel">y₀</text>
    
    <rect x="105" y="30" width="30" height="20" class="output" />
    <text x="120" y="45" class="sublabel">y₁</text>
    
    <rect x="175" y="30" width="30" height="20" class="output" />
    <text x="190" y="45" class="sublabel">y₂</text>
    
    <!-- Forward connections -->
    <line x1="50" y1="130" x2="50" y2="100" class="arrow" />
    <line x1="120" y1="130" x2="120" y2="100" class="arrow" />
    <line x1="190" y1="130" x2="190" y2="100" class="arrow" />
    
    <line x1="50" y1="60" x2="50" y2="50" class="arrow" />
    <line x1="120" y1="60" x2="120" y2="50" class="arrow" />
    <line x1="190" y1="60" x2="190" y2="50" class="arrow" />
    
    <!-- Recurrent connections -->
    <path d="M 70,80 L 100,80" class="recurrent" marker-end="url(#arrowhead)" />
    <path d="M 140,80 L 170,80" class="recurrent" marker-end="url(#arrowhead)" />
    
    <!-- Equation -->
    <text x="100" y="180" class="code">h_t = tanh(W_h h_{t-1} + W_x x_t + b)</text>
    <text x="100" y="200" class="code">y_t = W_y h_t + b_y</text>
  </g>
  
  <!-- LSTM -->
  <g transform="translate(300, 130)">
    <rect x="0" y="0" width="200" height="220" fill="#f9f9f9" stroke="#ccc" stroke-width="1" rx="5" ry="5" />
    <text x="100" y="25" class="box-title">LSTM</text>
    
    <!-- LSTM cell -->
    <rect x="25" y="60" width="150" height="80" class="lstm-neuron" rx="5" ry="5" />
    
    <!-- Gates -->
    <circle cx="55" cy="80" r="10" class="gate" />
    <text x="55" y="80" class="sublabel">f</text>
    <text x="55" y="95" class="sublabel">forget</text>
    
    <circle cx="85" cy="80" r="10" class="gate" />
    <text x="85" y="80" class="sublabel">i</text>
    <text x="85" y="95" class="sublabel">input</text>
    
    <circle cx="115" cy="80" r="10" class="gate" />
    <text x="115" y="80" class="sublabel">g</text>
    <text x="115" y="95" class="sublabel">cell</text>
    
    <circle cx="145" cy="80" r="10" class="gate" />
    <text x="145" y="80" class="sublabel">o</text>
    <text x="145" y="95" class="sublabel">output</text>
    
    <!-- Cell state -->
    <line x1="30" y1="120" x2="170" y2="120" class="cell-state" />
    <text x="100" y="135" class="sublabel">Cell State</text>
    
    <!-- Input -->
    <rect x="85" y="170" width="30" height="20" class="input" />
    <text x="100" y="185" class="sublabel">x_t</text>
    
    <!-- Output -->
    <rect x="85" y="20" width="30" height="20" class="output" />
    <text x="100" y="35" class="sublabel">h_t</text>
    
    <!-- Connections -->
    <path d="M 100,170 L 100,145" class="arrow" />
    <path d="M 100,55 L 100,40" class="arrow" />
    
    <!-- Hidden state recurrent connection -->
    <path d="M 25,80 C 10,80 10,110 25,110" class="recurrent" marker-end="url(#arrowhead)" />
  </g>
  
  <!-- GRU -->
  <g transform="translate(550, 130)">
    <rect x="0" y="0" width="200" height="220" fill="#f9f9f9" stroke="#ccc" stroke-width="1" rx="5" ry="5" />
    <text x="100" y="25" class="box-title">GRU</text>
    
    <!-- GRU cell -->
    <rect x="25" y="60" width="150" height="80" class="gru-neuron" rx="5" ry="5" />
    
    <!-- Gates -->
    <circle cx="65" cy="80" r="10" class="gate" />
    <text x="65" y="80" class="sublabel">z</text>
    <text x="65" y="95" class="sublabel">update</text>
    
    <circle cx="100" cy="80" r="10" class="gate" />
    <text x="100" y="80" class="sublabel">r</text>
    <text x="100" y="95" class="sublabel">reset</text>
    
    <circle cx="135" cy="110" r="10" class="neuron" />
    <text x="135" y="110" class="sublabel">h̃</text>
    <text x="135" y="125" class="sublabel">candidate</text>
    
    <!-- Input -->
    <rect x="85" y="170" width="30" height="20" class="input" />
    <text x="100" y="185" class="sublabel">x_t</text>
    
    <!-- Output -->
    <rect x="85" y="20" width="30" height="20" class="output" />
    <text x="100" y="35" class="sublabel">h_t</text>
    
    <!-- Connections -->
    <path d="M 100,170 L 100,145" class="arrow" />
    <path d="M 100,55 L 100,40" class="arrow" />
    
    <!-- Hidden state recurrent connection -->
    <path d="M 25,80 C 10,80 10,110 25,110" class="recurrent" marker-end="url(#arrowhead)" />
  </g>
  
  <!-- Equations section -->
  <g transform="translate(50, 390)">
    <rect x="0" y="0" width="700" height="80" fill="#f5f5f5" stroke="#ccc" stroke-width="1" rx="5" ry="5" />
    <text x="350" y="20" class="box-title">Key Equations</text>
    
    <!-- LSTM equations -->
    <text x="175" y="45" class="code" text-anchor="middle">LSTM: f_t = σ(W_f·[h_{t-1},x_t] + b_f)</text>
    <text x="175" y="65" class="code" text-anchor="middle">c_t = f_t ⊙ c_{t-1} + i_t ⊙ g_t</text>
    
    <!-- GRU equations -->
    <text x="525" y="45" class="code" text-anchor="middle">GRU: z_t = σ(W_z·[h_{t-1},x_t] + b_z)</text>
    <text x="525" y="65" class="code" text-anchor="middle">h_t = (1-z_t) ⊙ h_{t-1} + z_t ⊙ h̃_t</text>
  </g>
</svg>