<?xml version="1.0" encoding="UTF-8" standalone="no"?>
<svg width="800" height="600" xmlns="http://www.w3.org/2000/svg" viewBox="0 0 800 600">
  <style>
    .title { font: bold 24px Arial; fill: #333; text-anchor: middle; }
    .subtitle { font: 18px Arial; fill: #666; text-anchor: middle; }
    .method-title { font: bold 16px Arial; fill: #333; text-anchor: middle; }
    .label { font: 14px Arial; fill: #333; text-anchor: middle; }
    .sublabel { font: 12px Arial; fill: #666; text-anchor: middle; }
    .pointer { font: 12px Arial; fill: #666; text-anchor: start; }
    .params-label { font: 14px Arial; fill: #333; text-anchor: end; }
    .compute-label { font: 14px Arial; fill: #333; text-anchor: start; }
    .full-ft { fill: #e6f3ff; stroke: #3366cc; stroke-width: 1.5; }
    .lora { fill: #ffcccc; stroke: #993333; stroke-width: 1.5; }
    .adapter { fill: #e6ffe6; stroke: #339933; stroke-width: 1.5; }
    .instruction { fill: #ffffcc; stroke: #996600; stroke-width: 1.5; }
    .rlhf { fill: #f0e6ff; stroke: #6633cc; stroke-width: 1.5; }
    .arrow { stroke: #666; stroke-width: 1.5; fill: none; marker-end: url(#arrowhead); }
    .block { fill: #f5f5f5; stroke: #ccc; stroke-width: 1; }
    .matrix { fill: #fff; stroke: #999; stroke-width: 1; }
    .trainable { fill: #ffcc99; stroke: #ff6600; stroke-width: 1.5; }
    .frozen { fill: #cce6ff; stroke: #3399ff; stroke-width: 1; }
    .scale-bar { fill: #eee; stroke: #999; stroke-width: 0.5; }
    .scale-highlight { fill: #ff9933; opacity: 0.8; }
  </style>
  
  <defs>
    <marker id="arrowhead" markerWidth="10" markerHeight="7" refX="9" refY="3.5" orient="auto">
      <polygon points="0 0, 10 3.5, 0 7" fill="#666" />
    </marker>
  </defs>
  
  <!-- Title -->
  <text x="400" y="30" class="title">LLM Fine-tuning Methods</text>
  <text x="400" y="60" class="subtitle">Comparing Resource Requirements and Parameter Efficiency</text>
  
  <!-- Full Fine-tuning -->
  <rect x="50" y="100" width="700" height="80" class="block" rx="5" ry="5" />
  <text x="400" y="125" class="method-title">Full Fine-tuning</text>
  
  <rect x="100" y="140" width="500" height="30" class="full-ft" rx="3" ry="3" />
  <text x="350" y="160" class="label">All Parameters Updated</text>
  
  <rect x="620" y="125" width="100" height="40" class="scale-bar" rx="3" ry="3" />
  <rect x="620" y="125" width="100" height="40" class="scale-highlight" rx="3" ry="3" />
  <text x="670" y="150" class="label">100%</text>
  
  <!-- LoRA -->
  <rect x="50" y="200" width="700" height="90" class="block" rx="5" ry="5" />
  <text x="400" y="225" class="method-title">Low-Rank Adaptation (LoRA)</text>
  
  <rect x="100" y="240" width="500" height="30" class="frozen" rx="3" ry="3" />
  <rect x="250" y="240" width="30" height="30" class="trainable" rx="3" ry="3" />
  <rect x="290" y="240" width="30" height="30" class="trainable" rx="3" ry="3" />
  <rect x="380" y="240" width="30" height="30" class="trainable" rx="3" ry="3" />
  <rect x="420" y="240" width="30" height="30" class="trainable" rx="3" ry="3" />
  <text x="350" y="260" class="label">Low-Rank Matrices for Key Weights</text>
  
  <rect x="620" y="225" width="100" height="40" class="scale-bar" rx="3" ry="3" />
  <rect x="620" y="225" width="1" height="40" class="scale-highlight" rx="3" ry="3" />
  <text x="670" y="250" class="label">~0.1%</text>
  
  <!-- Adapter Layers -->
  <rect x="50" y="310" width="700" height="90" class="block" rx="5" ry="5" />
  <text x="400" y="335" class="method-title">Adapter Layers</text>
  
  <rect x="100" y="350" width="500" height="30" class="frozen" rx="3" ry="3" />
  <rect x="175" y="360" width="60" height="30" class="trainable" rx="3" ry="3" />
  <rect x="275" y="360" width="60" height="30" class="trainable" rx="3" ry="3" />
  <rect x="375" y="360" width="60" height="30" class="trainable" rx="3" ry="3" />
  <rect x="475" y="360" width="60" height="30" class="trainable" rx="3" ry="3" />
  <text x="350" y="355" class="label">Original Transformer Layers (Frozen)</text>
  <text x="350" y="380" class="label">Inserted Adapter Modules</text>
  
  <rect x="620" y="335" width="100" height="40" class="scale-bar" rx="3" ry="3" />
  <rect x="620" y="335" width="3" height="40" class="scale-highlight" rx="3" ry="3" />
  <text x="670" y="360" class="label">~0.5-3%</text>
  
  <!-- Instruction Fine-tuning -->
  <rect x="50" y="420" width="700" height="80" class="block" rx="5" ry="5" />
  <text x="400" y="445" class="method-title">Instruction Fine-tuning</text>
  
  <rect x="100" y="460" width="500" height="30" rx="3" ry="3" fill="#fff" stroke="#ccc" />
  <text x="150" y="480" class="sublabel">Instruction</text>
  <text x="250" y="480" class="sublabel">Input</text>
  <text x="400" y="480" class="sublabel">Response</text>
  <path d="M 200,460 L 200,490" stroke="#ccc" />
  <path d="M 300,460 L 300,490" stroke="#ccc" />
  
  <rect x="620" y="445" width="100" height="40" class="scale-bar" rx="3" ry="3" />
  <rect x="620" y="445" width="100" height="40" class="scale-highlight" opacity="0.3" rx="3" ry="3" />
  <text x="670" y="470" class="label">Varies</text>
  
  <!-- RLHF -->
  <rect x="50" y="520" width="700" height="80" class="block" rx="5" ry="5" />
  <text x="400" y="545" class="method-title">Reinforcement Learning from Human Feedback (RLHF)</text>
  
  <rect x="100" y="560" width="120" height="30" class="rlhf" rx="3" ry="3" opacity="0.8" />
  <text x="160" y="580" class="label">SFT Model</text>
  
  <rect x="290" y="560" width="120" height="30" class="rlhf" rx="3" ry="3" />
  <text x="350" y="580" class="label">Reward Model</text>
  
  <rect x="480" y="560" width="120" height="30" class="rlhf" rx="3" ry="3" opacity="0.6" />
  <text x="540" y="580" class="label">RL Optimization</text>
  
  <path d="M 220,575 L 290,575" class="arrow" />
  <path d="M 410,575 L 480,575" class="arrow" />
  
  <rect x="620" y="545" width="100" height="40" class="scale-bar" rx="3" ry="3" />
  <rect x="620" y="545" width="80" height="40" class="scale-highlight" rx="3" ry="3" />
  <text x="670" y="570" class="label">~60-80%</text>
  
  <!-- Metrics Comparison -->
  <line x1="50" y1="110" x2="50" y2="520" stroke="#333" stroke-width="2" />
  <line x1="50" y1="520" x2="45" y2="520" stroke="#333" stroke-width="2" />
  <line x1="50" y1="110" x2="45" y2="110" stroke="#333" stroke-width="2" />
  
  <text x="35" y="550" class="params-label" transform="rotate(-90, 35, 350)">Trainable Parameters</text>
  
  <line x1="750" y1="110" x2="750" y2="520" stroke="#333" stroke-width="2" />
  <line x1="750" y1="520" x2="755" y2="520" stroke="#333" stroke-width="2" />
  <line x1="750" y1="110" x2="755" y2="110" stroke="#333" stroke-width="2" />
  
  <text x="765" y="350" class="compute-label" transform="rotate(90, 765, 350)">Computational Requirements</text>
</svg>