<?xml version="1.0" encoding="UTF-8" standalone="no"?>
<svg width="800px" height="400px" viewBox="0 0 800 400" xmlns="http://www.w3.org/2000/svg">
  <style>
    .title { font-family: Arial; font-size: 22px; font-weight: bold; }
    .axis-label { font-family: Arial; font-size: 16px; }
    .legend-text { font-family: Arial; font-size: 14px; }
    .point-label { font-family: Arial; font-size: 12px; }
  </style>
  
  <!-- Title -->
  <text x="400" y="30" text-anchor="middle" class="title">Neural Network Loss Landscape</text>
  
  <!-- 3D Surface -->
  <g transform="translate(400, 200)">
    <!-- Base contour map -->
    <ellipse cx="0" cy="0" rx="300" ry="150" fill="none" stroke="#999" stroke-width="1" />
    
    <!-- Contour lines -->
    <ellipse cx="0" cy="0" rx="250" ry="125" fill="none" stroke="#999" stroke-width="1" />
    <ellipse cx="0" cy="0" rx="200" ry="100" fill="none" stroke="#999" stroke-width="1" />
    <ellipse cx="0" cy="0" rx="150" ry="75" fill="none" stroke="#999" stroke-width="1" />
    <ellipse cx="0" cy="0" rx="100" ry="50" fill="none" stroke="#999" stroke-width="1" />
    <ellipse cx="0" cy="0" rx="50" ry="25" fill="none" stroke="#999" stroke-width="1" />
    
    <!-- Global minimum -->
    <circle cx="0" cy="0" r="5" fill="#ff0000" />
    <text x="10" y="5" class="point-label">Global minimum</text>
    
    <!-- Local minima -->
    <circle cx="-180" cy="40" r="4" fill="#ff6600" />
    <text x="-170" y="45" class="point-label">Local minimum</text>
    
    <circle cx="150" cy="-65" r="4" fill="#ff6600" />
    <text x="160" y="-60" class="point-label">Local minimum</text>
    
    <!-- Saddle point -->
    <circle cx="-120" cy="-90" r="4" fill="#0099ff" />
    <text x="-110" y="-85" class="point-label">Saddle point</text>
    
    <!-- Optimization Trajectories -->
    <!-- SGD Path -->
    <path d="M -250,120 C -200,100 -150,80 -100,60 C -50,40 -20,20 0,0" 
          fill="none" stroke="#33cc33" stroke-width="2" stroke-dasharray="5,3"/>
    
    <!-- Adam Path -->
    <path d="M 250,-120 C 200,-100 150,-80 100,-60 C 50,-40 20,-20 0,0" 
          fill="none" stroke="#9933cc" stroke-width="2"/>
    
    <!-- Start points -->
    <circle cx="-250" cy="120" r="6" fill="#33cc33" />
    <text x="-240" y="125" class="point-label">SGD start</text>
    
    <circle cx="250" cy="-120" r="6" fill="#9933cc" />
    <text x="260" y="-115" class="point-label">Adam start</text>
  </g>
  
  <!-- Legend -->
  <g transform="translate(650, 80)">
    <rect x="0" y="0" width="120" height="100" fill="#ffffff" stroke="#999999" />
    
    <circle cx="10" cy="15" r="5" fill="#ff0000" />
    <text x="25" y="20" class="legend-text">Global minimum</text>
    
    <circle cx="10" cy="40" r="4" fill="#ff6600" />
    <text x="25" y="45" class="legend-text">Local minimum</text>
    
    <circle cx="10" cy="65" r="4" fill="#0099ff" />
    <text x="25" y="70" class="legend-text">Saddle point</text>
    
    <line x1="5" y1="90" x2="15" y2="90" stroke="#33cc33" stroke-width="2" stroke-dasharray="5,3" />
    <text x="25" y="95" class="legend-text">SGD</text>
    
    <line x1="60" y1="90" x2="70" y2="90" stroke="#9933cc" stroke-width="2" />
    <text x="80" y="95" class="legend-text">Adam</text>
  </g>
  
  <!-- Axis Labels -->
  <text x="400" y="380" text-anchor="middle" class="axis-label">Weight Space</text>
  <text x="30" y="200" text-anchor="middle" transform="rotate(-90, 30, 200)" class="axis-label">Loss Value</text>
</svg>