<?xml version="1.0" encoding="UTF-8" standalone="no"?>
<svg width="800px" height="500px" viewBox="0 0 800 500" xmlns="http://www.w3.org/2000/svg">
  <style>
    .title { font-family: Arial; font-size: 22px; font-weight: bold; }
    .subtitle { font-family: Arial; font-size: 18px; font-weight: bold; }
    .label { font-family: Arial; font-size: 14px; }
    .small-label { font-family: Arial; font-size: 12px; }
  </style>
  
  <!-- Title -->
  <text x="400" y="30" text-anchor="middle" class="title">Evolution of Sequence Models</text>
  
  <!-- RNN Side -->
  <g transform="translate(200, 130)">
    <text x="0" y="-50" class="subtitle">Recurrent Neural Network</text>
    
    <!-- RNN Cell -->
    <rect x="-60" y="-30" width="120" height="80" rx="10" ry="10" fill="#ffcc99" stroke="#ff9933" stroke-width="2" />
    <text x="0" y="15" text-anchor="middle" class="label">RNN Cell</text>
    
    <!-- Time Steps -->
    <g transform="translate(-200, 160)">
      <rect x="0" y="0" width="60" height="40" rx="5" ry="5" fill="#b3e6ff" stroke="#0099cc" stroke-width="2" />
      <text x="30" y="25" text-anchor="middle" class="small-label">x₁</text>
    </g>
    
    <g transform="translate(-120, 160)">
      <rect x="0" y="0" width="60" height="40" rx="5" ry="5" fill="#b3e6ff" stroke="#0099cc" stroke-width="2" />
      <text x="30" y="25" text-anchor="middle" class="small-label">x₂</text>
    </g>
    
    <g transform="translate(-40, 160)">
      <rect x="0" y="0" width="60" height="40" rx="5" ry="5" fill="#b3e6ff" stroke="#0099cc" stroke-width="2" />
      <text x="30" y="25" text-anchor="middle" class="small-label">x₃</text>
    </g>
    
    <g transform="translate(40, 160)">
      <rect x="0" y="0" width="60" height="40" rx="5" ry="5" fill="#b3e6ff" stroke="#0099cc" stroke-width="2" />
      <text x="30" y="25" text-anchor="middle" class="small-label">x₄</text>
    </g>
    
    <g transform="translate(120, 160)">
      <rect x="0" y="0" width="60" height="40" rx="5" ry="5" fill="#b3e6ff" stroke="#0099cc" stroke-width="2" />
      <text x="30" y="25" text-anchor="middle" class="small-label">x₅</text>
    </g>
    
    <!-- Outputs -->
    <g transform="translate(-200, -100)">
      <rect x="0" y="0" width="60" height="40" rx="5" ry="5" fill="#ccffcc" stroke="#66cc66" stroke-width="2" />
      <text x="30" y="25" text-anchor="middle" class="small-label">h₁</text>
    </g>
    
    <g transform="translate(-120, -100)">
      <rect x="0" y="0" width="60" height="40" rx="5" ry="5" fill="#ccffcc" stroke="#66cc66" stroke-width="2" />
      <text x="30" y="25" text-anchor="middle" class="small-label">h₂</text>
    </g>
    
    <g transform="translate(-40, -100)">
      <rect x="0" y="0" width="60" height="40" rx="5" ry="5" fill="#ccffcc" stroke="#66cc66" stroke-width="2" />
      <text x="30" y="25" text-anchor="middle" class="small-label">h₃</text>
    </g>
    
    <g transform="translate(40, -100)">
      <rect x="0" y="0" width="60" height="40" rx="5" ry="5" fill="#ccffcc" stroke="#66cc66" stroke-width="2" />
      <text x="30" y="25" text-anchor="middle" class="small-label">h₄</text>
    </g>
    
    <g transform="translate(120, -100)">
      <rect x="0" y="0" width="60" height="40" rx="5" ry="5" fill="#ccffcc" stroke="#66cc66" stroke-width="2" />
      <text x="30" y="25" text-anchor="middle" class="small-label">h₅</text>
    </g>
    
    <!-- RNN Connections -->
    <!-- Input connections -->
    <line x1="-170" y1="160" x2="-40" y2="50" stroke="#0099cc" stroke-width="2" />
    <line x1="-90" y1="160" x2="-30" y2="50" stroke="#0099cc" stroke-width="2" />
    <line x1="-10" y1="160" x2="-20" y2="50" stroke="#0099cc" stroke-width="2" />
    <line x1="70" y1="160" x2="-10" y2="50" stroke="#0099cc" stroke-width="2" />
    <line x1="150" y1="160" x2="0" y2="50" stroke="#0099cc" stroke-width="2" />
    
    <!-- Output connections -->
    <line x1="-40" y1="-30" x2="-170" y2="-100" stroke="#66cc66" stroke-width="2" />
    <line x1="-30" y1="-30" x2="-90" y2="-100" stroke="#66cc66" stroke-width="2" />
    <line x1="-20" y1="-30" x2="-10" y2="-100" stroke="#66cc66" stroke-width="2" />
    <line x1="-10" y1="-30" x2="70" y2="-100" stroke="#66cc66" stroke-width="2" />
    <line x1="0" y1="-30" x2="150" y2="-100" stroke="#66cc66" stroke-width="2" />
    
    <!-- Recurrent connections -->
    <path d="M 60 10 C 90 10, 120 40, 120 80 C 120 120, 90 150, 60 150 C 30 150, 0 120, 0 80 C 0 40, 30 10, 60 10" 
          fill="none" stroke="#ff6600" stroke-width="2" stroke-dasharray="5,3" />
    <text x="130" y="80" class="small-label">Recurrent</text>
    <text x="130" y="95" class="small-label">connection</text>
    
    <!-- Sequential Processing Label -->
    <text x="0" y="230" text-anchor="middle" class="label" fill="#cc0000">Sequential Processing</text>
  </g>
  
  <!-- Transformer Side -->
  <g transform="translate(600, 130)">
    <text x="0" y="-50" class="subtitle">Transformer</text>
    
    <!-- Multi-head Attention -->
    <rect x="-90" y="-30" width="180" height="80" rx="10" ry="10" fill="#d9b3ff" stroke="#9933cc" stroke-width="2" />
    <text x="0" y="15" text-anchor="middle" class="label">Multi-head Attention</text>
    
    <!-- Inputs in parallel -->
    <g transform="translate(-200, 100)">
      <rect x="0" y="0" width="60" height="40" rx="5" ry="5" fill="#b3e6ff" stroke="#0099cc" stroke-width="2" />
      <text x="30" y="25" text-anchor="middle" class="small-label">x₁</text>
    </g>
    
    <g transform="translate(-120, 100)">
      <rect x="0" y="0" width="60" height="40" rx="5" ry="5" fill="#b3e6ff" stroke="#0099cc" stroke-width="2" />
      <text x="30" y="25" text-anchor="middle" class="small-label">x₂</text>
    </g>
    
    <g transform="translate(-40, 100)">
      <rect x="0" y="0" width="60" height="40" rx="5" ry="5" fill="#b3e6ff" stroke="#0099cc" stroke-width="2" />
      <text x="30" y="25" text-anchor="middle" class="small-label">x₃</text>
    </g>
    
    <g transform="translate(40, 100)">
      <rect x="0" y="0" width="60" height="40" rx="5" ry="5" fill="#b3e6ff" stroke="#0099cc" stroke-width="2" />
      <text x="30" y="25" text-anchor="middle" class="small-label">x₄</text>
    </g>
    
    <g transform="translate(120, 100)">
      <rect x="0" y="0" width="60" height="40" rx="5" ry="5" fill="#b3e6ff" stroke="#0099cc" stroke-width="2" />
      <text x="30" y="25" text-anchor="middle" class="small-label">x₅</text>
    </g>
    
    <!-- Outputs -->
    <g transform="translate(-200, -100)">
      <rect x="0" y="0" width="60" height="40" rx="5" ry="5" fill="#ccffcc" stroke="#66cc66" stroke-width="2" />
      <text x="30" y="25" text-anchor="middle" class="small-label">y₁</text>
    </g>
    
    <g transform="translate(-120, -100)">
      <rect x="0" y="0" width="60" height="40" rx="5" ry="5" fill="#ccffcc" stroke="#66cc66" stroke-width="2" />
      <text x="30" y="25" text-anchor="middle" class="small-label">y₂</text>
    </g>
    
    <g transform="translate(-40, -100)">
      <rect x="0" y="0" width="60" height="40" rx="5" ry="5" fill="#ccffcc" stroke="#66cc66" stroke-width="2" />
      <text x="30" y="25" text-anchor="middle" class="small-label">y₃</text>
    </g>
    
    <g transform="translate(40, -100)">
      <rect x="0" y="0" width="60" height="40" rx="5" ry="5" fill="#ccffcc" stroke="#66cc66" stroke-width="2" />
      <text x="30" y="25" text-anchor="middle" class="small-label">y₄</text>
    </g>
    
    <g transform="translate(120, -100)">
      <rect x="0" y="0" width="60" height="40" rx="5" ry="5" fill="#ccffcc" stroke="#66cc66" stroke-width="2" />
      <text x="30" y="25" text-anchor="middle" class="small-label">y₅</text>
    </g>
    
    <!-- Attention Connections -->
    <!-- All-to-all connections (simplified) -->
    <path d="M -170 100 C -80 0, 80 0, 170 100" fill="none" stroke="#9933cc" stroke-width="2" />
    <path d="M -170 100 C -80 50, 80 50, 170 100" fill="none" stroke="#9933cc" stroke-width="1" opacity="0.5" />
    <path d="M -170 100 C -80 -50, 80 -50, 170 100" fill="none" stroke="#9933cc" stroke-width="1" opacity="0.3" />
    
    <!-- Output connections -->
    <line x1="-90" y1="-30" x2="-170" y2="-100" stroke="#66cc66" stroke-width="2" />
    <line x1="-45" y1="-30" x2="-90" y2="-100" stroke="#66cc66" stroke-width="2" />
    <line x1="0" y1="-30" x2="-10" y2="-100" stroke="#66cc66" stroke-width="2" />
    <line x1="45" y1="-30" x2="70" y2="-100" stroke="#66cc66" stroke-width="2" />
    <line x1="90" y1="-30" x2="150" y2="-100" stroke="#66cc66" stroke-width="2" />
    
    <!-- Parallel Processing Label -->
    <text x="0" y="180" text-anchor="middle" class="label" fill="#cc0000">Parallel Processing</text>
    
    <!-- Attention Explanation -->
    <text x="0" y="200" text-anchor="middle" class="small-label">Each token attends to all other tokens</text>
  </g>
  
  <!-- Evolution Arrow -->
  <g transform="translate(400, 130)">
    <path d="M -150 0 L 150 0" stroke="#333333" stroke-width="3" />
    <polygon points="150,0 140,-10 140,10" fill="#333333" />
    <text x="0" y="-15" text-anchor="middle" class="label">Evolution</text>
  </g>
  
  <!-- Key Advantages -->
  <g transform="translate(200, 400)">
    <rect x="-150" y="0" width="300" height="70" rx="10" ry="10" fill="#ffffcc" stroke="#cccc00" stroke-width="2" />
    <text x="0" y="20" text-anchor="middle" class="label">RNN Advantages/Limitations:</text>
    <text x="0" y="40" text-anchor="middle" class="small-label">✓ Memory of previous inputs</text>
    <text x="0" y="60" text-anchor="middle" class="small-label">✗ Sequential computation (slow)</text>
  </g>
  
  <g transform="translate(600, 400)">
    <rect x="-150" y="0" width="300" height="70" rx="10" ry="10" fill="#ffffcc" stroke="#cccc00" stroke-width="2" />
    <text x="0" y="20" text-anchor="middle" class="label">Transformer Advantages/Limitations:</text>
    <text x="0" y="40" text-anchor="middle" class="small-label">✓ Parallel computation (fast)</text>
    <text x="0" y="60" text-anchor="middle" class="small-label">✓ Direct attention between any positions</text>
  </g>
</svg>