<?xml version="1.0" encoding="UTF-8" standalone="no"?>
<svg xmlns="http://www.w3.org/2000/svg" width="800" height="600" viewBox="0 0 800 600">
  <defs>
    <!-- Filter for shadow effect -->
    <filter id="shadow" x="-20%" y="-20%" width="140%" height="140%">
      <feGaussianBlur in="SourceAlpha" stdDeviation="2" result="blur"/>
      <feOffset dx="2" dy="2" result="offsetBlur"/>
      <feComponentTransfer>
        <feFuncA type="linear" slope="0.4"/>
      </feComponentTransfer>
      <feMerge>
        <feMergeNode in="offsetBlur"/>
        <feMergeNode in="SourceGraphic"/>
      </feMerge>
    </filter>
    
    <!-- Brain silhouette -->
    <path id="brain-shape" d="M400,100 C360,100 330,120 300,140 C270,160 240,180 220,210 C200,240 190,280 200,320 C210,360 230,390 260,410 C290,430 320,440 350,450 C380,460 420,460 450,450 C480,440 510,430 540,410 C570,390 590,360 600,320 C610,280 600,240 580,210 C560,180 530,160 500,140 C470,120 440,100 400,100 Z"/>
    
    <!-- Arrow marker definition -->
    <marker id="arrowhead" markerWidth="10" markerHeight="7" refX="0" refY="3.5" orient="auto">
      <polygon points="0 0, 10 3.5, 0 7" fill="#333"/>
    </marker>
    
    <!-- Gradients for different regions -->
    <linearGradient id="visualGradient" x1="0%" y1="0%" x2="100%" y2="100%">
      <stop offset="0%" style="stop-color:#1976D2;stop-opacity:1" />
      <stop offset="100%" style="stop-color:#64B5F6;stop-opacity:1" />
    </linearGradient>
    
    <linearGradient id="auditoryGradient" x1="0%" y1="0%" x2="100%" y2="100%">
      <stop offset="0%" style="stop-color:#D32F2F;stop-opacity:1" />
      <stop offset="100%" style="stop-color:#EF5350;stop-opacity:1" />
    </linearGradient>
    
    <linearGradient id="tactileGradient" x1="0%" y1="0%" x2="100%" y2="100%">
      <stop offset="0%" style="stop-color:#388E3C;stop-opacity:1" />
      <stop offset="100%" style="stop-color:#81C784;stop-opacity:1" />
    </linearGradient>
    
    <linearGradient id="multimodalGradient" x1="0%" y1="0%" x2="100%" y2="100%">
      <stop offset="0%" style="stop-color:#7B1FA2;stop-opacity:1" />
      <stop offset="100%" style="stop-color:#BA68C8;stop-opacity:1" />
    </linearGradient>
    
    <linearGradient id="prefrontalGradient" x1="0%" y1="0%" x2="100%" y2="100%">
      <stop offset="0%" style="stop-color:#F57C00;stop-opacity:1" />
      <stop offset="100%" style="stop-color:#FFB74D;stop-opacity:1" />
    </linearGradient>
  </defs>
  
  <!-- Background -->
  <rect width="800" height="600" fill="#fff"/>
  
  <!-- Title -->
  <text x="400" y="40" font-family="Arial, sans-serif" font-size="24" text-anchor="middle" font-weight="bold" fill="#333">
    Neural Basis of Multimodal Integration
  </text>
  
  <!-- Brain outline -->
  <use href="#brain-shape" fill="#f5f5f5" stroke="#ccc" stroke-width="2" filter="url(#shadow)"/>
  
  <!-- Sensory regions -->
  <!-- Visual cortex -->
  <ellipse cx="250" cy="260" rx="60" ry="40" fill="url(#visualGradient)" stroke="#1565C0" stroke-width="2" filter="url(#shadow)"/>
  <text x="250" y="260" font-family="Arial, sans-serif" font-size="14" text-anchor="middle" fill="#fff" font-weight="bold">
    Visual Cortex
  </text>
  <text x="250" y="277" font-family="Arial, sans-serif" font-size="10" text-anchor="middle" fill="#fff">
    (Occipital)
  </text>
  
  <!-- Auditory cortex -->
  <ellipse cx="380" cy="190" rx="50" ry="35" fill="url(#auditoryGradient)" stroke="#C62828" stroke-width="2" filter="url(#shadow)"/>
  <text x="380" y="190" font-family="Arial, sans-serif" font-size="14" text-anchor="middle" fill="#fff" font-weight="bold">
    Auditory Cortex
  </text>
  <text x="380" y="207" font-family="Arial, sans-serif" font-size="10" text-anchor="middle" fill="#fff">
    (Temporal)
  </text>
  
  <!-- Somatosensory/tactile cortex -->
  <ellipse cx="500" cy="240" rx="55" ry="40" fill="url(#tactileGradient)" stroke="#2E7D32" stroke-width="2" filter="url(#shadow)"/>
  <text x="500" y="235" font-family="Arial, sans-serif" font-size="14" text-anchor="middle" fill="#fff" font-weight="bold">
    Somatosensory
  </text>
  <text x="500" y="252" font-family="Arial, sans-serif" font-size="10" text-anchor="middle" fill="#fff">
    (Parietal)
  </text>
  
  <!-- Multisensory integration areas -->
  <!-- Superior temporal sulcus (STS) -->
  <ellipse cx="320" cy="300" rx="45" ry="35" fill="url(#multimodalGradient)" stroke="#6A1B9A" stroke-width="2" filter="url(#shadow)"/>
  <text x="320" y="295" font-family="Arial, sans-serif" font-size="14" text-anchor="middle" fill="#fff" font-weight="bold">
    STS
  </text>
  <text x="320" y="312" font-family="Arial, sans-serif" font-size="10" text-anchor="middle" fill="#fff">
    Audio-Visual
  </text>
  
  <!-- Temporoparietal junction (TPJ) -->
  <ellipse cx="430" cy="290" rx="40" ry="30" fill="url(#multimodalGradient)" stroke="#6A1B9A" stroke-width="2" filter="url(#shadow)"/>
  <text x="430" y="290" font-family="Arial, sans-serif" font-size="14" text-anchor="middle" fill="#fff" font-weight="bold">
    TPJ
  </text>
  
  <!-- Posterior parietal cortex (PPC) -->
  <ellipse cx="460" cy="350" rx="35" ry="30" fill="url(#multimodalGradient)" stroke="#6A1B9A" stroke-width="2" filter="url(#shadow)"/>
  <text x="460" y="350" font-family="Arial, sans-serif" font-size="13" text-anchor="middle" fill="#fff" font-weight="bold">
    PPC
  </text>
  
  <!-- Prefrontal cortex -->
  <ellipse cx="400" cy="420" rx="60" ry="45" fill="url(#prefrontalGradient)" stroke="#E65100" stroke-width="2" filter="url(#shadow)"/>
  <text x="400" y="420" font-family="Arial, sans-serif" font-size="14" text-anchor="middle" fill="#fff" font-weight="bold">
    Prefrontal Cortex
  </text>
  
  <!-- Connections between areas -->
  <!-- Visual to STS -->
  <path d="M280,250 Q300,270 320,265" fill="none" stroke="#333" stroke-width="2" marker-end="url(#arrowhead)"/>
  
  <!-- Auditory to STS -->
  <path d="M350,210 Q330,240 320,260" fill="none" stroke="#333" stroke-width="2" marker-end="url(#arrowhead)"/>
  
  <!-- Tactile to TPJ -->
  <path d="M460,260 Q450,270 430,260" fill="none" stroke="#333" stroke-width="2" marker-end="url(#arrowhead)"/>
  
  <!-- Tactile to PPC -->
  <path d="M480,270 Q470,300 460,320" fill="none" stroke="#333" stroke-width="2" marker-end="url(#arrowhead)"/>
  
  <!-- STS to TPJ -->
  <path d="M365,300 Q390,300 390,290" fill="none" stroke="#333" stroke-width="2" marker-end="url(#arrowhead)"/>
  
  <!-- TPJ to PPC -->
  <path d="M450,320 Q455,335 460,330" fill="none" stroke="#333" stroke-width="2" marker-end="url(#arrowhead)"/>
  
  <!-- STS to Prefrontal -->
  <path d="M320,335 Q340,380 370,410" fill="none" stroke="#333" stroke-width="2" marker-end="url(#arrowhead)"/>
  
  <!-- TPJ to Prefrontal -->
  <path d="M430,320 Q415,365 400,375" fill="none" stroke="#333" stroke-width="2" marker-end="url(#arrowhead)"/>
  
  <!-- PPC to Prefrontal -->
  <path d="M440,370 Q420,395 400,400" fill="none" stroke="#333" stroke-width="2" marker-end="url(#arrowhead)"/>
  
  <!-- Legend -->
  <rect x="600" y="150" width="150" height="170" rx="5" ry="5" fill="#f8f8f8" stroke="#ccc" stroke-width="1" filter="url(#shadow)"/>
  <text x="675" y="170" font-family="Arial, sans-serif" font-size="14" text-anchor="middle" font-weight="bold" fill="#333">
    Legend
  </text>
  
  <!-- Legend items -->
  <circle cx="620" cy="190" r="10" fill="url(#visualGradient)"/>
  <text x="680" y="195" font-family="Arial, sans-serif" font-size="12" text-anchor="middle" fill="#333">
    Primary Visual
  </text>
  
  <circle cx="620" cy="220" r="10" fill="url(#auditoryGradient)"/>
  <text x="680" y="225" font-family="Arial, sans-serif" font-size="12" text-anchor="middle" fill="#333">
    Primary Auditory
  </text>
  
  <circle cx="620" cy="250" r="10" fill="url(#tactileGradient)"/>
  <text x="680" y="255" font-family="Arial, sans-serif" font-size="12" text-anchor="middle" fill="#333">
    Somatosensory
  </text>
  
  <circle cx="620" cy="280" r="10" fill="url(#multimodalGradient)"/>
  <text x="680" y="285" font-family="Arial, sans-serif" font-size="12" text-anchor="middle" fill="#333">
    Multisensory Areas
  </text>
  
  <circle cx="620" cy="310" r="10" fill="url(#prefrontalGradient)"/>
  <text x="680" y="315" font-family="Arial, sans-serif" font-size="12" text-anchor="middle" fill="#333">
    Prefrontal Cortex
  </text>
  
  <!-- Information boxes -->
  <!-- Box 1: Sensory Processing -->
  <rect x="150" y="460" width="200" height="110" rx="5" ry="5" fill="#f9f9f9" stroke="#ccc" stroke-width="1" filter="url(#shadow)"/>
  <text x="250" y="480" font-family="Arial, sans-serif" font-size="14" text-anchor="middle" font-weight="bold" fill="#333">
    Sensory Processing
  </text>
  <text x="250" y="505" font-family="Arial, sans-serif" font-size="12" text-anchor="middle" fill="#333">
    • Modality-specific processing
  </text>
  <text x="250" y="525" font-family="Arial, sans-serif" font-size="12" text-anchor="middle" fill="#333">
    • Hierarchical feature extraction
  </text>
  <text x="250" y="545" font-family="Arial, sans-serif" font-size="12" text-anchor="middle" fill="#333">
    • Parallel sensory pathways
  </text>
  <text x="250" y="565" font-family="Arial, sans-serif" font-size="12" text-anchor="middle" fill="#333">
    • Specialized neural receptive fields
  </text>
  
  <!-- Box 2: Multimodal Integration -->
  <rect x="450" y="460" width="200" height="110" rx="5" ry="5" fill="#f9f9f9" stroke="#ccc" stroke-width="1" filter="url(#shadow)"/>
  <text x="550" y="480" font-family="Arial, sans-serif" font-size="14" text-anchor="middle" font-weight="bold" fill="#333">
    Multimodal Integration
  </text>
  <text x="550" y="505" font-family="Arial, sans-serif" font-size="12" text-anchor="middle" fill="#333">
    • Cross-modal binding
  </text>
  <text x="550" y="525" font-family="Arial, sans-serif" font-size="12" text-anchor="middle" fill="#333">
    • Temporal synchronization
  </text>
  <text x="550" y="545" font-family="Arial, sans-serif" font-size="12" text-anchor="middle" fill="#333">
    • Bayesian causal inference
  </text>
  <text x="550" y="565" font-family="Arial, sans-serif" font-size="12" text-anchor="middle" fill="#333">
    • Multisensory enhancement
  </text>
  
  <!-- Abbreviations -->
  <text x="600" y="390" font-family="Arial, sans-serif" font-size="14" text-anchor="start" fill="#333" font-weight="bold">
    Abbreviations:
  </text>
  <text x="600" y="410" font-family="Arial, sans-serif" font-size="12" text-anchor="start" fill="#333">
    STS: Superior Temporal Sulcus
  </text>
  <text x="600" y="430" font-family="Arial, sans-serif" font-size="12" text-anchor="start" fill="#333">
    TPJ: Temporoparietal Junction
  </text>
  <text x="600" y="450" font-family="Arial, sans-serif" font-size="12" text-anchor="start" fill="#333">
    PPC: Posterior Parietal Cortex
  </text>
</svg>